<?xml version="1.0" encoding="utf-8"?>
<!-- Generator: Adobe Illustrator 21.0.0, SVG Export Plug-In . SVG Version: 6.00 Build 0)  -->
<svg version="1.1" id="Layer_1" xmlns="http://www.w3.org/2000/svg" xmlns:xlink="http://www.w3.org/1999/xlink" x="0px" y="0px"
	 viewBox="0 0 612 792" style="enable-background:new 0 0 612 792;" xml:space="preserve">
<style type="text/css">
	.st0{fill:#FFFFFF;}
</style>
<g>
	<path class="st0" d="M551.3,449c1.8-15.2,3.6-29.8,5.4-44.6c-168.3,0-335.3,0-502.4,0c6,164.5,163.4,270.8,304.3,235.7
		c0-3.8,0-7.5,0-11.7c-6,0-11.6,0-17.3,0c0-6.1,0-11.7,0-18c18,0,35.7,0,53.9,0c0-6.3,0-11.9,0-17.9c6.1,0,11.7,0,17.8,0
		c0-6.1,0-11.6,0-17.9c18.2,0,35.9,0,54.1,0c0-6.3,0-11.9,0-18c6.1,0,11.7,0,17.4,0c0-6.1,0-11.7,0-18c-12,0-23.7,0-35.9,0
		c0-6.3,0-11.9,0-18c-18.1,0-35.7,0-53.4,0c0-6.1,0-11.7,0-17.9c12,0,23.7,0,35.8,0c0-6.2,0-11.8,0-17.9c24,0,47.6,0,71.3,0
		c0-6.2,0-11.9,0-18.1c-12,0-23.6,0-35.2,0c0-6.1,0-11.7,0-17.7C495,449,522.6,449,551.3,449z M430.5,233.3c0-6,0-11.7,0-17.9
		c-11.9,0-23.5,0-35.3,0c0-6.1,0-11.7,0-18c5.9,0,11.6,0,17.7,0c0-8.7-0.2-16.6,0.1-24.6c0.2-3.6-1.2-5.3-4.3-6.7
		c-20.8-9.2-42.3-15.9-64.8-19.3c-59-8.9-114.7,1-165.8,31.5C111.2,218.2,71.2,277.4,57.3,354c-1.9,10.4-2.4,21-3.6,31.7
		c168,0,335.1,0,503,0c-1.9-15.1-3.7-29.7-5.5-44.8c-34.7,0-68.4,0-102,0c0-6.2,0-11.8,0-17.9c11.9,0,23.5,0,35.1,0
		c0-6.2,0-11.9,0-18.1c-24,0-47.6,0-71.1,0c0-6.1,0-11.7,0-17.8c17.9,0,35.5,0,53.1,0c0-6.2,0-11.9,0-18.1c-6,0-11.6,0-17.7,0
		c0-6.1,0-11.7,0-17.8c-12.1,0-23.7,0-35.4,0c0-6.2,0-11.9,0-17.9C419.2,233.3,424.7,233.3,430.5,233.3z"/>
	<path d="M551.3,449c-28.7,0-56.3,0-84.2,0c0,6,0,11.6,0,17.7c11.6,0,23.2,0,35.2,0c0,6.2,0,11.9,0,18.1c-23.7,0-47.3,0-71.3,0
		c0,6.1,0,11.7,0,17.9c-12.2,0-23.9,0-35.8,0c0,6.2,0,11.8,0,17.9c17.7,0,35.3,0,53.4,0c0,6.1,0,11.7,0,18c12.2,0,23.9,0,35.9,0
		c0,6.3,0,11.9,0,18c-5.8,0-11.4,0-17.4,0c0,6.1,0,11.7,0,18c-18.2,0-35.9,0-54.1,0c0,6.3,0,11.9,0,17.9c-6.1,0-11.7,0-17.8,0
		c0,6.1,0,11.7,0,17.9c-18.2,0-35.9,0-53.9,0c0,6.3,0,11.9,0,18c5.7,0,11.3,0,17.3,0c0,4.2,0,7.9,0,11.7
		C217.7,675.2,60.3,568.9,54.3,404.4c167.1,0,334.1,0,502.4,0C554.9,419.1,553.1,433.8,551.3,449z"/>
	<path d="M430.5,233.3c-5.8,0-11.3,0-17.2,0c0,6,0,11.7,0,17.9c11.7,0,23.3,0,35.4,0c0,6.1,0,11.7,0,17.8c6.1,0,11.7,0,17.7,0
		c0,6.2,0,11.9,0,18.1c-17.6,0-35.2,0-53.1,0c0,6.1,0,11.7,0,17.8c23.5,0,47.1,0,71.1,0c0,6.2,0,11.9,0,18.1c-11.6,0-23.2,0-35.1,0
		c0,6.1,0,11.7,0,17.9c33.5,0,67.3,0,102,0c1.9,15.1,3.7,29.7,5.5,44.8c-168,0-335,0-503,0c1.2-10.7,1.7-21.3,3.6-31.7
		c13.9-76.6,53.9-135.8,120.7-175.7c51.2-30.6,106.9-40.5,165.8-31.5c22.5,3.4,44,10.1,64.8,19.3c3.1,1.4,4.5,3,4.3,6.7
		c-0.3,8-0.1,15.9-0.1,24.6c-6.1,0-11.9,0-17.7,0c0,6.3,0,11.9,0,18c11.8,0,23.4,0,35.3,0C430.5,221.6,430.5,227.2,430.5,233.3z
		 M143.5,269c-0.6,38.4,31.5,71.6,69.5,72.1c40.9,0.5,73.5-30.4,74.1-70.4c0.6-39.9-30.9-72.6-70.4-73.1
		C176.1,197.1,144,228.4,143.5,269z"/>
	<path class="st0" d="M143.5,269c0.6-40.6,32.7-71.9,73.2-71.4c39.6,0.5,71.1,33.2,70.4,73.1c-0.6,40-33.2,71-74.1,70.4
		C174.9,340.6,142.9,307.4,143.5,269z"/>
</g>
</svg>
