<?xml version="1.0" encoding="utf-8"?>
<!-- Generator: Adobe Illustrator 21.0.0, SVG Export Plug-In . SVG Version: 6.00 Build 0)  -->
<svg version="1.1" id="Layer_1" xmlns="http://www.w3.org/2000/svg" xmlns:xlink="http://www.w3.org/1999/xlink" x="0px" y="0px"
	 viewBox="0 0 477.9 792" style="enable-background:new 0 0 477.9 792;" xml:space="preserve">
<style type="text/css">
	.st0{fill:#0C0906;}
</style>
<g>
	<g>
		<path class="st0" d="M215.5,329.7c-0.5,2-1.6,3.4-3.7,3.3c-2.6-0.1-3.9-1.8-3.9-4.2c0-2.3,1.6-3.2,3.7-2.9
			C213.9,326.1,215.2,327.3,215.5,329.7z"/>
		<path class="st0" d="M301.3,329.1c-2.2-0.2-3.4-1.7-3.4-3.9c0-1.8,0.8-3.4,2.9-3.2c2.3,0.2,4,1.5,3.9,4.2
			C304.6,328.2,303.4,329.1,301.3,329.1z"/>
	</g>
	<g>
		<path class="st0" d="M173.2,488.8c-18.9,0.9-32.7-6.5-41-23c-1.5,0.4-1.6,1.3-2,2c-4.4,8.1-9.1,8.5-13.6,0.4
			c-5.9-10.5-10.2-21.7-11.8-33.7c-0.3-2.3,0.2-4.3,1.6-6.1c3.2-4.2,3.7-8.9,3.3-14.1c-1-11.9-3.1-24.1-1.7-35.9
			c1.9-16.7,0.7-33.2,0.3-49.7c-0.1-2.5-0.6-5-0.7-7.4c-0.3-3.2-0.8-5.7-5-5.7c-2.8,0-4.6-2.5-5.9-4.9c-5-8.6-10-17.3-15.1-25.9
			c-2.2-3.7-0.9-6.8,1.5-9.6c2.1-2.6,2.3-4.7,0.7-8c-4.2-8.8-4.6-18.7-7.1-28c-3.1-11.4-5.8-22.8-6.3-34.6
			c-0.4-9.7,1.3-18.9,4.4-27.9c1.3-3.8,3.5-6.7,7.1-8.6c5.8-3.2,10.2-7.8,14.2-13c8.2-10.5,19.8-16.6,31-23
			c7.6-4.4,15.9-7.4,22.5-13.6c3.4-3.1,8.4-2.7,12.9-3.1c5.5-0.5,11.1-1.6,16.4-0.7c13.4,2.3,27.1,0,40.4,3.1
			c9.2,2.2,17.5,6.1,24.8,12.9c1.8-4.6,2-9.1,2.5-13.5c0.6-4.8,2.9-8,7.3-9.9c6-2.5,10.9,0.7,10.6,7.1c-0.5,9.4,2,17.9,5.6,26.3
			c15.2-12.6,31-22.6,50.6-24.9c2.8-0.3,5.4-1.2,7.9-2.9c5.1-3.4,10.7-1.2,16.1-0.7c14,1.3,27.3,5.4,40.3,10.2
			c11.3,4.2,20.5,11.9,28.8,20.2c9.9,10,16.4,22.6,23.3,34.7c1.6,2.9,2.7,6.2,2.8,9.5c0.3,11.1,3,22,2.6,33.2
			c-0.2,5.6-3.3,9.4-7.5,12.3c-9.1,6.4-13.2,15.9-16.7,25.8c-3,8.5-2.4,17.8-5.9,26.2c-2.8,6.8-5.7,13.5-7.4,20.7
			c-0.4,1.6-1,3.6-2.6,4.1c-8.8,3-5.8,10.7-5.7,16.1c0.2,12.4,2.2,24.8,3,37.2c0.7,10.4,0.1,21.1,2.7,31.3c2.1,7.9,2.3,16.1,4.7,24
			c1.1,3.7,0.5,7.3-1.8,10.4c-5.5,7.4-8.4,15.7-9.8,24.8c-0.9,6-5,7.1-11.9,3.1c-0.2,1-0.6,1.9-0.6,2.8c-0.3,8.5-4.2,14.9-11.1,19.6
			c-2.6,1.8-3.6,3.5-2.7,6.9c2.2,8.3,3.6,16.9,5.8,25.3c2.7,10,9.8,17.3,16.2,24.9c7.2,8.5,14.2,17.2,22.2,24.9
			c3,2.9,2.5,5.3-0.5,7.4c-22.2,16.2-46.1,28.5-74.1,31c-15.1,1.4-30.3,0.8-45.5,1c-6.1,0.1-11.8-0.8-18,2.2
			c-7.5,3.7-15.8,1-22.9-3.3c-3.1-1.8-5.3-2-8.6-0.7c-26.7,10.6-53.8,11.6-81.1,2.9c-16.5-5.3-29.5-15.6-39.9-29.5
			c-1.7-2.3-1.7-4.4,0.4-6.1c19.2-16.1,31.5-37.1,42.8-59C168.7,501.1,171.2,495.6,173.2,488.8z M266.3,220.9
			c-0.8,0.1-1.6,0.2-1.6,1.3c0,0.1,0.2,0.3,0.3,0.3c1.1,0.1,1.2-0.7,1.4-1.5c0.2-0.2,0.3-0.4,0.5-0.6
			C266.7,220.6,266.5,220.8,266.3,220.9z M348.4,503L348.4,503c-0.3-2.4-2.2-2.5-4-3.1c-4.8-1.5-9.8-2.1-14.7-2.3
			c-8.1-0.3-16.1-2-24.3-1c-5.3,0.6-5.2,2.9-4.5,6.7c0.5,2.6-0.2,6.2,1.2,7.6c1.3,1.2,4.9,0,7.5-0.1c15.5-0.9,30.8,0.9,45.7,5.2
			l0.1,0.2l0-0.1c-0.6-1.3-1.3-2.7-1.9-4c-0.2-0.3-0.4-0.5-0.5-0.8c-0.2-0.3-0.4-0.5-0.6-0.8c0.3-1.1,0-2-1-2.6
			c-0.3-0.6-0.5-1.2-0.8-1.8c-0.1-0.9-0.4-1.8-1.3-2.3C349,503.4,348.7,503.2,348.4,503z M244.4,476.8c-0.1-3.8-0.2-7.5-0.2-11.3
			c0.2-3.6,0.7-7.2-0.6-10.7c-0.2-9.1-1.5-18.2-2.4-27.3c0.3-0.9,0.2-1.8-0.4-2.6c-0.4-2.8-0.9-5.6-1.3-8.3c0,0,0,0,0,0
			c-0.1-6.4-0.1-12.8-0.2-19.1c0-0.6,0-1.1,0-1.7c-0.1-5.5,1.4-10.8,2.6-15.9c-5.8-2.2-8.4,0.3-9.1,5.7c-0.1,0.5-0.2,1-0.3,1.4
			c-1.5,2-1.4,4.3-1.1,6.7c-0.5,4.2-1,8.5-1.5,12.7c-0.2,1.3-0.4,2.6-0.5,3.9c-1.1,21.7,3.5,43,4.5,64.5c1,8.5,0.8,17.1,0.6,25.7
			c0,0.7,0,1.4,0.1,2.1c0.1,0.6,0.1,1.1,0.2,1.7c-0.5,1.7-0.6,3.4,0.3,5.1c0.1,6.4,0.3,12.8,0.4,19.2c-0.4,2-0.4,4,0.1,6
			c0.6,4.8,0.9,9.6,0.7,14.5c-0.4,5.2-0.3,10.3,0.3,15.5c0,0.1,0.1,0.2,0.1,0.3c0,0.2-0.1,0.4-0.2,0.6c0,0.7,0,1.4,0,2.1
			c1.4,8.1,0.6,16.4,1.2,24.6c1.7-0.5,2.9-0.9,4.2-1.3c7.9-2.9,7.9-2.9,7-10.2c-0.4-4.5-1.2-9-0.7-13.5c0.3-3.3,0.5-6.7-0.3-10
			c-1-5.2-0.7-10.5-0.7-15.8c-0.1-14.9-0.4-29.8-1.9-44.6c0-2.4,0-4.8,0-7.3c-0.1-1.7-0.2-3.4-0.2-5.1c-0.2-0.2-0.2-0.5,0-0.8
			C245.4,481.3,245.4,479,244.4,476.8z M298.2,587.5c0-2.7,0-5.4,0-8.2c0.4-3.2,0.5-6.4,0-9.6c0-2.5,0-5.1,0-7.6
			c0.5-1,0.5-2.1,0.1-3.2c0-9.8,0-19.6,0-29.4c1.2-2.6,1.2-5.4,0.7-8.1c-0.1-9,0.4-18.1-0.8-27.1c0.2-1.3,0.6-2.6-0.7-3.5
			c0.6-1.4,0.2-2.7-0.3-4c-0.3-2.4-0.6-4.8-0.9-7.1c0.5-1.7,0.2-3.4-0.3-5.1c-0.7-3-1.2-6-1-9.2c0-1.1,0-2.3-0.1-3.4
			c-1.1-12.3-3.5-24.6-1.8-37.1c1.1-8.3,2.6-16.7,2-25.2c0-4.1,0-8.2-0.1-12.3c-0.3-4.7-1.1-9.3-3.9-13.1c-1.2-1.6-2-5.1-5-3.3
			c-2.5,1.5-5.3,3.2-3.9,7.5c3.4,10.4,3.2,21.3,2.4,32.1c-0.5,6.6-0.6,13.3-0.2,19.9c0,2.2,0,4.4-0.1,6.6c-1.5,13-1.9,26-2,39.1
			c-0.2,3.8-0.6,7.6-0.7,11.4c-0.4,10.4-0.1,21-1.4,31.3c-1.3,10.1,0.8,19.9,1.1,29.8c0.4,7.3,0.8,14.6,1.1,22
			c0,4.8,0.5,9.5,1.7,14.2c1.8,6.7,1.7,6.8,9.3,6.8C295.8,591,298.7,591.3,298.2,587.5z M342.4,444.6c0,0.5,0,1-0.1,1.4
			c0.2,0.2,0.1,0.4-0.1,0.6c-1.5,3.8-1.2,7.7-0.2,11.6c0.5,3.4,1,6.8,1.5,10.3c0.1,0.6,0.1,1.3,0.3,1.9c1.3,5.6,9.3,9.4,14.6,7.2
			c2-0.8,1.6-2,1.2-3.6c-1-3.8-1.7-7.7-2.6-11.6c-2-10.8-1.1-21.6,1.2-32.2c1.9-8.9,4.6-17.7,12.1-23.9c1.2-1.2,5.2-1.4,2.4-4.1
			c-2.3-2.2-6-2.8-8.4,0c-6,7.2-12.2,14.3-15.9,23.1c-0.3,0.5-0.5,1.1-0.8,1.6c-3.6,4.8-3.6,10.8-5.1,16.2c0,0.1,0.1,0.3,0.1,0.4
			C342.6,444.1,342.5,444.3,342.4,444.6z M211.4,216.1c-0.2-0.2-0.3-0.3-0.5-0.5c0.3-1.3,0.7-2.5,1-3.8c0.3-1.2,1.6-2.5,0.4-3.7
			c-1.4-1.3-2.4,0.4-3.4,1c-5.9,4-11.7,8.2-17.5,12.3c6.8-0.7,10.9-6.7,17.7-9.2c-0.5,1.3-0.7,1.9-0.8,2.5c-0.3,1.5-2,3.2-0.3,4.6
			c1.8,1.5,3.5,0.2,4.9-0.9c1.9-1.5,3.9-1.6,6.6-0.7C217,214.2,217,214.2,211.4,216.1z M190.5,525.2c11.5-7.1,23.7-12.4,37.3-13.4
			c1.9-0.1,3.2-0.6,3.2-2.7c0.3-1.2,0.4-2.3-0.4-3.4c-0.1-1-0.3-2-0.4-3c0-0.7-0.1-1.3-0.1-2c-0.5-1.1,1.2-3.7-2.2-2.8
			c-10.8,2.8-22,4.8-31.3,11.7c-1.3,0.6-2.5,1.2-2.5,2.9c-5.4,3.5-5.1,9.7-8.2,14.9C188.4,527.2,189.6,526.5,190.5,525.2z
			 M276.3,216c0.1,0.2,0.3,0.3,0.4,0.5c1,4.5,4.1,3,6.5,2c3.9-1.6,7.1-2.4,11.7-1.1c6.5,1.9,12.3-2.3,19.6-4.6
			c-4.1-1.6-6.5-0.5-8.9,0.2c-3,0.9-6.1,2.9-9.1,1.9c-5.4-1.8-10,0-14.7,2.2c-0.8,0.3-1.6,0.6-2.4-0.4c0.5-0.9,1.1-1.9,1.5-2.9
			c0.4-0.9,2.2-1.6,0.8-2.8c-1.1-0.9-2.2,0.1-3.1,0.8c-2.6,1.8-5.1,3.6-7.7,5.5c-1.6-0.1-3,1.3-2.3,2.2c1.1,1.4,2.5,0,3.4-1.2
			C273.3,217,274.5,215.8,276.3,216z M274.3,523.5c0.3-1.8,0.5-3.6-1-5l0,0c0.6-2.5,0.1-5-0.3-7.4c-1-7.5-1-14.9-0.1-22.4
			c0.2-1.8,1.2-3.7-2-3.8c-2.7-0.1-4,0.5-3.7,3.5c0.6,8.5,0.7,16.9,1.6,25.4c0.6,5.9-0.6,12,1.5,17.8c0.7,13,1.4,26,2.1,38.9
			c-0.6,7.1,0.3,14.1,1.1,21.2c5.2-1.5,7.5-4.3,7-9.8c-1.2-15.2-1.9-30.5-3.2-45.7c-0.3-3.6-0.2-7.7-3.1-10.7
			C274.3,524.8,274.3,524.2,274.3,523.5z M372.3,160L372.3,160c-1.4-1.2,1.7-2-0.2-3.7c-5,3.2-9,7.7-13.4,11.8
			c-0.9,0.9-2.2,1.9-0.8,3.3c1.3,1.2,2.5,0.2,3.5-0.6c3-2.1,5.9-4.3,9.3-5.7c0.2,0.3,0.5,0.7,0.7,1c0,1.4-2.1,2.6-0.6,4.1
			c1.4,1.4,3.1,0.5,4.6,0c2.7-0.9,5-3.1,8.2-3c-0.4,0.6-0.6,1-1,1.3c-1.5,1.3-2.6,3-1.5,4.8c1.1,1.8,2.6-0.6,4-0.4
			c2.4,0.3,4.4-1.1,6.5-1.8c1.2-0.4,2.4-1.2,3.4,0.6c3.5,7,15.9,7.3,22.9,5c-5.7,0.4-11-1.3-16.3-3c-1.7-0.6-3.8-1-4.2-3.1
			c-0.9-4-3.6-3.3-6.2-2.5c-1.8,0.5-3.5,1.6-6.8,1.5c2.3-1.9,3.7-3.3,5.3-4.4c1.2-0.9,3-1.5,2-3.3c-0.9-1.8-2.5-0.8-4-0.4
			c-3.4,0.9-6.2,3.7-10.3,3c1.1-1,2-1.8,2.8-2.6c1-1,2.9-1.9,1.7-3.6c-1-1.4-2.7-0.7-4.1-0.2C376.1,158.9,374.5,160.5,372.3,160z
			 M156,427.5l0-0.1l-0.1,0.1c1.4-1.6,0.3-3.1-0.2-4.6c-2.2-8.2-4.9-16.2-6.5-24.5c-1.1-5.4-4-6.7-8.7-7c-2.5-0.2-3.2,0.3-2.9,2.8
			c0.7,6.8,1.4,13.6,1.6,20.4c0.1,2.8,1.3,4.1,3.5,5.3C147.2,422.2,151.6,424.9,156,427.5z M256.4,556.5c-0.1-6.6-0.2-13.1-0.3-19.7
			c0.2-15.6-1.1-31.2-1.5-46.8c-0.1-3.5-1.5-5-4.5-4.9c-3.4,0.1-1.8,3-1.8,4.6c-0.1,18.5-0.1,36.9,0.9,55.3
			c0.6,11.6,1.8,23.1,3.3,34.6c0.3,2.8,1.1,5.5,1.7,8.2c0.3,1.5,1.3,2.5,2.8,2.2c2.4-0.4,0.7-1.9,0.6-3c-0.1-3.3,0.1-6.6,0-10
			C257.4,570.2,258.4,563.3,256.4,556.5z M132.3,373.4c-0.1-1.4-0.1-2.8-0.2-4.2c-0.5-8.6-1.1-17.3-1.6-25.9
			c0.2-8.4,0.2-8.4-7.9-8.4c-0.8,0-1.7,0.1-2.5,0c-3-0.4-4.1,0.7-4,3.9c0.7,25.7-1,51.5,0.9,77.3c0.3,3.6,0.9,7.2-0.6,10.8
			c-0.9,2.2,0.6,3.1,2.7,3.7c3.9,1.1,7.6-0.5,11.4-0.3c3.5,0.1,5.3-1.5,4.6-5.2c-0.4-7.3-0.8-14.6-1.2-21.9c0.5-1.6,0.2-3.1-0.4-4.5
			C133.1,390.2,132.7,381.8,132.3,373.4z M163.5,455.3c0,6,0.1,12-0.1,18c-0.3,6.8,0.7,7.8,7.8,6.5c1.8-0.3,3.9-0.2,4-3.2
			c0.5-23-0.3-45.8-6.7-68.1l0-0.1c-2-13.6-2-13.6-15.2-15.6c-0.6-0.1-1.2-0.6-1.7,0.1c0.1,1.7,0.9,3.1,1.8,4.5
			c0,0.6-0.3,1.3-0.1,1.9C159.2,417.5,162,436.3,163.5,455.3z M267.3,558.5c0-1.7,0.2-3.3,0.1-5c-1-21.8-1.9-43.6-2.9-65.4
			c-0.1-1.7,1-4.5-2.5-4.1c-2.7,0.3-5.3,0.6-4.7,4.6c0.5,3.9,0.6,8,0.8,11.9c1.4,28.8,2.7,57.5,4,86.3c0.3,6.8,0.3,6.8,7.2,6.3
			c0.8-0.1,1.6-0.2,1.9-0.3c-0.9-4.2-1.4-8.4-1.8-12.6c-0.7-6.9-0.3-14-2-20.8C267.3,559.2,267.3,558.8,267.3,558.5z M390,330
			c-1.5-6.8-1.7-6.9-8.6-5.7c-0.8,0.1-1.6,0.5-2.4,0.5c-4.8,0-6.3,2.5-6.1,7c0.4,8.1,1.3,16.2,1.2,24.4c-0.3,16.3-0.2,32.6,2.9,48.7
			c2.1,10.9,2.1,10.9,13.2,9.9c1.5,0,3-0.1,4.5-0.1c1.9,0,2.6-0.7,2.2-2.7c-1-6.1-1.7-12.2-2.5-18.3c-0.1-1.4-0.2-2.7-0.3-4.1
			c-0.5-11-2.4-21.8-2.3-32.9C391.9,347.9,390.7,338.9,390,330z M194.3,505c1.5-0.6,3.1-1.1,4.6-1.7c8.1-3.5,16.1-7,24.9-8.3
			c7.3-1.1,7.3-1,7.3-8.7c0-5.2,0.1-10.3,0.1-15.5c0.1-8.5-0.1-16.9-2-25.3c-0.4-1.9-0.4-4.1-3-4.5c0.2-2.8,2-5.2,2-8.2
			c-0.1-13-0.1-26,0.1-39c0-3.1-1-4.2-4-3.9c-6.8,0.7-13.3,2.8-19.9,4.6c-3,0.8-5.3,2-4.5,6.2c0.3,1.6,0.4,5.6-3,6
			c-2.9,0.4-3.8-2.4-4.4-4.6c-0.6-2.2-1.8-2.6-3.7-2.3c-2.8,0.4-0.8,2.3-1,3.5c-0.3,2.1-0.8,4-3.2,4.5c-2.3,0.4-4-1.3-4-2.9
			c-0.2-6.7-4.8-7.8-10.1-8.5c-1,2.9,0.5,5.3,1.3,7.7c2.5,7.4,4.2,15,5.3,22.8c2.3,15.7,2.1,31.5,1.9,47.3c-0.1,4.1,0.9,5.2,5.1,4.3
			c8.9-1.9,16.4-6,23.1-12.1c8.1-7.2,13.4-16.4,18.8-25.5c-0.3,6.5-3.9,11.6-7.2,16.7c-4.9,7.7-10.7,14.8-15.6,22.5
			C198.8,487.7,194.8,495.7,194.3,505c-0.2,0.1-0.3,0.2-0.5,0.4c0.1,0,0.2,0,0.3,0C194.2,505.3,194.3,505.1,194.3,505z M272.5,458
			c1-0.7,0.9-2.4,2.7-2.9c0,8.1,0,16.1,0,24c0,1.6-0.8,4,2.3,3.9c2.7-0.1,1.9-2.3,2-3.7c0.6-9.3,1.2-18.6,1.6-27.9
			c0.7-15.9,2.2-31.9,1.2-47.8c-0.8-7.4-1.6-14.8-2.4-22.2c-0.4-3.5-1.5-5.3-5.7-4.5c-5.7,1.1-11.5,1.4-17.3,2
			c-4,0.2-8.3-1.2-11.4,2.5c0.1,0.1,0.2,0.2,0.1,0.3c0,0.2-0.1,0.5-0.2,0.7c-1.7,3.5-1.3,7.4-1.6,11.1c0.1,9.7-0.4,19.4,0.5,29.1
			c0,19.3,3.2,38.4,4,57.6c0.1,1.9,1.5,2.6,3.1,2.5c2-0.1,2.2-1.7,2.2-3.3c0-8.3,0-16.6,0-24.9c0-1.1-0.6-2.6,1-3.3
			c0.3,0.4,0.5,0.6,0.6,0.9c3,8.2,2.2,16.7,1.3,25.1c-0.5,4.7,1.1,5.9,5.3,4.6c2.3-0.7,2.8-2.5,2.7-4.7c-0.3-6.5-0.7-12.9-0.8-19.4
			c0-1.5-1.3-4.3,1.3-4.4c2.3-0.1,1.3,2.6,1.4,4c0.7,7.3,1.3,14.6,1.8,21.8c0.2,2.8,1.1,3.8,3.6,1.8
			C272.1,473.4,270.2,465.6,272.5,458z M341.1,170.8c-0.3-5,0.9-9.9,1.5-14.8c1.2-9.9,2.8-19.7,1.4-29.7c-0.7-4.7-3-7-7.7-6.9
			c-6.2,0.2-8.9,2.2-9.7,7.2c-1.3,8.5-2.9,17-3.9,25.6c-1,8.2-1.9,16.5,0.5,24.7c2.5,8.3,11.4,10.6,18,4.6
			C341.2,177.9,341.2,174.3,341.1,170.8z M89.7,173.4c-5.5,0.7-7.3,5.2-8.8,9.5c-3.3,9.3-3.4,19-2,28.6c1.9,13.2,2.1,13.2,14.5,18.7
			c2.4,1.1,4.8,2.3,7.3,3.2c8.2,3.2,16.5,6,25.5,5.6c7.6-0.4,10.7-3,11.9-10.4c0.6-3.8-0.1-5.2-4.6-5.5
			c-19.4-1.1-34.5-10.1-44.7-26.6c-4.9-7.8-4.1-16.8,1.1-23.1l-0.2-0.1L89.7,173.4z M201.4,475c-4.4,2.6-8.6,5.6-13.7,6.6
			c-3.2,0.6-4.5,2.6-5.6,5.5c-9.7,26.9-24.1,51.1-42.5,72.9c-10.2,12.2-11.3,8.7,1.7,19.2c5.3,4.3,7,3.8,10.7-2
			c4.7-7.3,9.4-14.6,13.9-22c5.6-9.2,12.6-17.7,15.7-28.3c3.7-12.6,7.5-25.1,13-37.1C197,485,200.2,480.5,201.4,475
			c0.1-0.1,0.2-0.1,0.3-0.2c0.1,0,0-0.2,0.1-0.2C201.6,474.7,201.5,474.9,201.4,475z M301.3,446c2.2-0.6,2.8,1.4,3.8,2.5
			c6.4,6.9,13.7,12.7,21.7,17.4c3.8,2.3,7.5,5.2,12.7,5.8c-4.6-13.1-4.2-25.6,0.4-38.1c4-10.9,10.4-20.4,17.6-29.4
			c1.6-2,2.3-3.2-1-3.8c-4.1-0.8-7.9-2.6-11.4-5c-1.8-1.2-3.3-2.1-4.4,1c-0.7,2.1-3.4,2.5-4.7,1.3c-2.7-2.5-6.2-2.7-9.1-4
			c-3.5-1.5-7.5-3-10.6-5.3c-4.6-3.4-9-3.6-14.1-2.7c-2.2,0.4-3.1,0.9-3.3,3.3c-0.9,11.2-1.4,22.5-3,33.7c-1.2,8,0.1,14.7,5,21
			C301.6,444.3,301.9,445.2,301.3,446c-2.7-0.8-2.8-4.4-5.9-5.5c1.3,14.8,2.5,29.3,3.8,43.8c0.2,2.8-0.6,6.2,0.7,8.3
			c1.9,2.9,5.4,0.1,8.2,0.2c12.6,0.3,25.1,0.9,37.7,3.1c-2.1-10.9-5.3-20.6-17.2-24.1c-2.7-0.8-5.2-2.4-7.5-3.9
			C312.5,462.4,306.2,454.8,301.3,446z M197.4,354.9c6.6,5.6,13.1,11.2,21.4,14.2c29.7,10.4,57.2,4.8,83.3-11.2
			c8-4.9,13.5-12.1,19.4-19.1c5.6-6.7,8-14.5,8.9-22.9c0.6-6.1,0.1-12.4,1-18.5c0.6-4.1-2.6-8.4,1-12.2c0.1-0.1-0.4-0.9-0.7-1.3
			c-7.8-10.2-14.1-21.4-23.9-30c-13.3-11.6-21.1-11.9-34.9-1.3c-1.3,1-2.7,2-3.9,3.1c-4.6,4.1-9.1,8.3-13.6,12.5
			c-1.6,1.5-3.1,2.7-5,0.4c-4.1-5-9.3-8.5-14.9-11.8c-17.1-10-45.3-8.2-53.7,18.3c-0.9,2.8-2.4,5.5,2,7.1c1.7,0.6,2.9,3,2.2,5.1
			c-0.5,1.6-0.1,2.7,0.6,4.1c2.2,4-1.3,9.3,2.9,13c0.3,0.2-0.3,1.5-0.7,2.3c-0.4,0.9-0.9,1.8-0.3,2.8c3.3,5.9,0.1,12.5,1.6,18.8
			c1.1,4.2,1,9,0.6,13.7C190.2,347.5,195.2,350.7,197.4,354.9c-2.3,2.5-2.3-2.8-4.6-1.2c-0.7,12.5,5.6,24,5.9,36.5
			c6.5-1.1,12.9-2.3,19.3-3.4c-1.3-4.2-3.1-8.2-2-12.6c0.5-1.9-1.2-2.1-2.3-2.7c-6.1-3.5-11.1-8.4-15.6-13.7
			C197.4,357.1,195.5,356.4,197.4,354.9z M128.1,308c4.9,13.8,6.5,27.6,7.5,41.6c0.8,11.3,0.8,22.6,0.8,34c0,2.2,0.1,3.5,2.9,4
			c11,1.7,21.9,3.8,32.9,5.5c6.2,0.9,7.1-0.1,6.6-6.3c-0.1-0.6-0.6-1.3-0.6-1.9c0-7.2-1.3-14.3-1.5-21.5c-0.2-6.1-0.1-12.3-2.5-18.3
			c-1.2-3-4-7.3-2.2-9.5c2.7-3.3,1.1-5-0.1-7.5c-0.5-1.1-0.9-2.9-0.3-3.8c3.4-6-0.7-12,0.1-18.1c0.3-2.5,1.2-6,0.4-8.6
			c-1.4-4.6-0.6-9.4-0.4-13.6c0.2-4.3-0.6-7.9-1.5-11.8c-0.8-3.6-1.7-7.1-1.9-10.8c-1.6-30.9,15.3-55.2,45.4-65.5
			c0.8-0.3,2.3-0.2,2.3-1.4c0-1.1-0.6-2.1-1.9-2.6c-9.7-3.7-19.3-7.4-29.6-1.3c-3,1.8-6.3,3-10,2.6c-5.1-0.6-10.3-0.8-15.4-1.6
			c-3.5-0.6-6.3,0.3-8.6,2.6c-6.3,6.4-11,13.7-12.6,22.8c-0.2,1-0.4,1.7,0.4,2.7c4.5,5.5,5.1,11.1,0.3,15.7
			c-6.5,6.2-8.4,12.4-6.5,21.5c3,14.7,0.9,29.9,2,44.8C134.5,305.9,134.7,309.5,128.1,308z M300.6,197.5c5.8,2.5,10.1,5.3,13.8,9
			c13.2,13.2,22.2,29,26.8,47.1c2.5,9.7,4.1,19.6-1,29.2c-0.9,1.7,0.2,3,1.3,3.8c4,2.8,4,7.8,4.1,11.1c0.2,4.1,1.8,8.5-0.1,12.9
			c-1.7,3.9,2.1,8.4,1.4,11.7c-1.2,5.2,1.5,10.3-0.5,15.2c-1.2,3.1,1.3,6.4-0.5,9.3c-2.1,3.3-1.7,6.8-1.2,10.1c0.8,4.7-2.5,9.3,0,14
			c0.5,0.9-0.7,2.1-1.7,2.8c-0.7,0.5-1.4,1-0.7,2c1.6,2.3,0.1,4.2-0.4,6.5c-0.5,2.2-2.3,5.6,0.7,7.1c8.6,4.2,17.3,8.4,27.3,8.8
			c2.8,0.1,3.7-0.5,3.5-3.4c-0.9-11.6-1.7-23.3-2.5-34.9c-1.8-26.9-4.1-53.8-2.3-80.8c0.7-10.4,1.4-21.1,7.6-30.1
			c1.7-2.4,1.8-4.1,0.9-6.7c-3-8.1-5.2-16.2-1.4-24.7c0.4-0.9,0.3-1.6-0.2-2.3c-6.4-9.4-12.9-18.7-24.1-23
			c-10.1-4-20.9-5.2-31.5-7.5c-1.5-0.3-2.6,0.1-3.7,0.9C311.2,189.3,306.2,193.1,300.6,197.5z M319.3,588.9
			c8.3,0.3,16.6-0.8,24.9-0.9c14.8-0.2,28.5-4.3,41.5-11.2c2.6-1.4,3.4-2.8,1.6-5.4c-3-4.5-6.4-9.1-8.5-13.8
			c-3.9-8.7-9.5-16.4-13.3-25c-3.9-8.9-9.1-15.2-19.9-14.1c-0.2,0-0.3-0.1-0.5-0.1c-12-1.8-23.9-4.2-36.1-4.3
			c-4.3-0.1-7.7,2.8-7.7,6.6c-0.4,21.6-0.6,43.3-1,64.9c0,2.7,0.9,3.5,3.5,3.4C308.9,588.8,314.1,588.9,319.3,588.9z M192.2,597.1
			c12.9,0.5,25-1.1,37.1-4c3.2-0.8,4.3-2.1,4.1-5.4c-0.5-7.1-0.7-14.3-0.9-21.4c-0.4-15.8-0.9-31.6-1.1-47.4c0-4.1-1.9-4.5-4.9-3.5
			c-10.1,3.3-20.3,6.4-30.3,10c-5.1,1.9-10.3,4.2-13.4,9.1c-10.4,16.3-20.6,32.6-31,48.9c-2,3.2-1,4.1,1.9,5.9
			C165.8,596.5,179.1,597.6,192.2,597.1z M336.2,282.4c1.8-15.1,2-29.4-4-43.1c-1.6-3.7-3.8-7-7-9.6c-1-0.8-1.8-1.6-3.4-0.7
			c-11.5,6.6-24.5,6.5-37.1,8c-16.1,2-32.3,1.5-48.4,1c-19.3-0.6-38.5-1.7-57.3-6.9c-2.5-0.7-2.7,0.5-3,2.2
			c-1.8,9.2-3.3,18.4-3,27.7c0.2,5.5,0.4,11.3,5,15.9c0.8-2.3,1.4-4.4,2.2-6.4c3.3-7.9,7.8-15.2,15.8-18.5
			c15.3-6.3,30.4-6.3,44.3,4.5c3.3,2.5,6.9,4.6,10.3,7c1.1,0.8,1.9,1.1,2.9,0c3.6-4.2,9.2-6,12.9-10.1c3.2-3.6,7.1-5.9,11.6-7.5
			c1.6-0.5,3.3-1.1,4.4-2.3c2.8-2.9,5.9-3,9.5-2.3c5.9,1.2,10.8,4.1,15.3,7.9c6.4,5.4,11.4,12.1,16.6,18.6
			C327.5,272.7,331.1,277.7,336.2,282.4z M172.2,122.2c-3.8-0.3-8.4,1-13,1c-4,0-5,1.7-4.7,5.4c1.1,14.9,2.7,29.8,4.9,44.6
			c2.5,16.9,5.4,18.6,22.5,15.1c2.2-0.4,3.4-0.5,2.6-3.5c-1.2-4.1-2.1-8.5-2.2-12.7c-0.3-13.6-0.2-27.3-0.1-40.9
			C182.3,122,182.4,122,172.2,122.2z M130.9,267.3c-3.6,0-6.9-0.3-10.1-1.2C107,262.2,97.4,266,90,278c-1.3,2-1.3,3.4,0.1,5.2
			c5.4,7.4,10.6,14.9,15.8,22.3c0.8,1.2,1.5,2.3,3.5,2c5.9-1,11.8-1.8,17.7-2.4c2.5-0.3,2.7-0.9,2.4-3.3
			C128.1,290.4,128,279,130.9,267.3z M370.6,283.3c-0.7,7.1-1.4,13.6,8.7,15.4c5.7,1,11,1.8,16.6,0.8c1.8-0.3,3-1.2,3.7-3.4
			c2-7,4.5-13.8,6.7-20.8c1.8-5.6-0.4-9.6-6.1-10.1c-7.6-0.6-15.3-1.2-22.6,1.9c-4.5,2-8.2,4.2-7,10.1
			C370.9,279.3,370.6,281.3,370.6,283.3z M268.8,158.5c0.6,3,1.3,5.6,1.6,8.3c0.3,3,0.3,6,0,9c-0.8,7.9-5.7,12.8-12.2,12.4
			c-10-0.5-14.9-5.1-15-14.1c0-4.9,0-9.8,0-15.9c-6,9-11.4,17-9.5,27.3c1.1,6.1,2.5,12.4,9.2,14.8c5.3,1.9,11,2.3,16.7,1.5
			c12-1.7,17.9-8.6,17.8-20.4c0-2.2,0.1-4.4-0.2-6.5C276.1,168.7,275,162.5,268.8,158.5z M344.3,479.1c0.8,2.5,1.3,4.3,1.9,6
			c11.3,28.1,25.3,54.9,41.3,80.6c4.3,7,4.9,6.8,10.9,0.9c2.1-2,2.2-3.4,0-5.2c-8.6-7.6-14.9-16.9-20.9-26.5
			c-5.1-8.2-8.6-17.1-11-26.5c-1.8-7.2-3.6-14.5-5.3-21.7c-0.6-2.6-2-3.9-4.6-4.5C352.8,481.2,349,480.2,344.3,479.1z M140.3,422.2
			c0.6,7.4-1.1,13.8-3.3,20.1c-1.4,4-1.3,7.7,0.6,11.4c3,5.9,5.7,12,9.7,17.4c2.7,3.7,6.1,6.4,10.4,7.4c3.1-7,3-14.2,2.6-21.3
			c-0.4-7.6-1.3-15.2-2-22.8c-0.1-1,0.1-2.2-1.1-2.5C150.9,430.5,146.2,426,140.3,422.2z M433.1,203.5c-4.3,4.4-8.9,8-13.6,11.3
			c-10.9,7.6-22.7,13.1-36.2,13.6c-7.3,0.3-7.3,0.2-5.1,7.3c0.1,0.5,0.3,1,0.4,1.4c0.4,3.1,2,3.7,5,3.5c17.2-1.2,32.8-7,47.4-15.8
			c1.2-0.7,2.2-1.2,2.2-2.9C433.1,216,433.1,210.1,433.1,203.5z M255.5,121.2c-1.8,9-4.7,17.6-8.2,26.6c1.1-0.5,1.6-0.8,2.1-1
			c1.5-0.8,3.2-1.7,4.5,0c1.4,2-1.1,2.4-1.9,3.3c-6.4,6.7-8.4,20.8-4,29.4c1.6,3.2,3.9,5.1,7.8,5.2c7.5,0.2,12.2-5.4,11.7-12.9
			c-0.5-8.2-3.9-15.2-7.2-22.4c-0.6-1.3-2.5-2.4-1.4-3.9c1.3-1.7,2.6,1.1,4.3,0.7C261,137.9,255.8,130.3,255.5,121.2z M330,336.9
			c-2.2,2.9-4.4,5.6-6.4,8.3c-4.5,6.2-11.4,9.5-17.5,13.7c-2.6,1.8-4.3,3.2-1.3,6.4c2.7,2.9,4.3,6.7,4.7,10.8
			c0.3,2.7,1.6,4.5,4.4,5.3c2.7,0.7,5.4,1.6,8,2.5c1.6,0.6,1.9-0.4,2.3-1.6c2.7-7.9,1.9-16.5,4.6-24.5c0.5-1.6,1.8-3.4,1.4-4.6
			C328.5,347.9,330.7,342.6,330,336.9z M363.4,474.7c2.9-0.6,4.5-2.7,5.3-4.6c4.3-10.3,7.2-21,8.9-32c0.3-1.9-0.3-3.3-2.3-3.7
			c-4.1-0.8-8.3-0.2-12.4-0.2c-1.7,0-1.4,1.5-1.5,2.6c-0.7,5.6-1.2,11.3-0.7,16.9C361.4,460.7,361.2,467.8,363.4,474.7z
			 M122.4,463.3c3.5-7.4,6.7-13.5,8.3-20.2c0.4-1.6,0.6-2.8-1.8-2.9c-4.3-0.1-8.6-0.4-12.9-0.7c-2.1-0.1-2.8,0.7-2,2.6
			C116.8,448.7,120,455.2,122.4,463.3z M377.7,426.2c2.2,7,4.7,13.1,10.6,17.9c2.4-6.1,4.6-11.9,6.9-17.9
			C389.3,426.2,383.8,426.2,377.7,426.2z M363.6,431.2c1.3,0.3,2.6,0.6,3.9,0.9c5.5,1.4,7.2,0,7-5.7c-0.1-2.5,0.3-5,0.4-7.4
			c0.2-3.7,0.8-7.4-1.6-11.5C369,415.4,364.6,422.5,363.6,431.2z M126.2,169.5c0.3-4.2,1.8-7.3,3-10.5c0.4-1,0.8-2.4-0.6-3
			c-1.1-0.5-1.8,0.5-2.4,1.3c-2.9,3.8-5.8,7.6-9.2,11.9c4.4,0.1,4.5-4.1,7.2-5c0.7,1.7-0.4,3.2-0.5,4.8c-0.1,2.9,1.3,4.5,3.9,2.9
			c4.8-2.9,8.3-7.5,13.1-10.5C134.2,160.9,131.9,167.2,126.2,169.5z M184.1,360.2c-0.7,2.2-1.9,3.5-0.9,6.4
			c1.2,3.8,3.8,7.9,2.3,12.3c-1.6,4.6,0.8,8.8,1.3,13.2c0.2,1.3,2,1.1,3,0.9c1.2-0.3,0.9-1.6,0.6-2.5c-1.1-3.4-1.6-7-1.1-10.3
			c0.5-3.1-0.3-6.1-1.7-8c-2.2-2.8-2.4-5.5-2.1-8.7C185.5,362.4,185.7,361.1,184.1,360.2z M277.8,521.5c1.9-11.4,3-22.9-1.3-34.2
			C274.2,498.7,275.2,510.1,277.8,521.5z M288.6,153.5c3.2,2.8,5.8,5.1,9.4,2.7c2.1-1.4,2.8-3.3,1.6-6.4c-2.3,3.1-3.7,6.7-7.5,3
			c-1.5-1.5-3.1-3.5-5.3-1.1c-1.4,1.6-0.4,5.2,1.9,6.9C288.6,157.1,288.6,155.7,288.6,153.5z M378,420.4c6.2,3.7,13.9,3.6,18.3,0
			C390.4,420.4,384.4,420.4,378,420.4z M129.5,328.2c-4.5,0-8,0-11.6,0c-0.9,0-1.6,0.2-1.6,1.3c0.1,0.7,0.4,1.3,1.2,1.2
			C121.3,330.6,125.4,331.8,129.5,328.2z M114.8,434.2c4.7,2.5,9.4,1.7,14.1,1C124.2,434.9,119.5,434.6,114.8,434.2z M116.6,323.5
			c3.3,1.8,6.2,1.4,8.9,1.5c0.9,0,2.7,0.7,2.4-1.3c-0.1-1.4-1.3-1.8-2.6-1.6C122.7,322.5,120.1,322.9,116.6,323.5z M180.5,316.1
			c1.6,2.4-0.2,5,0.5,7.5C181.4,321,183.9,318.3,180.5,316.1z M332.3,376.9c0.7,3.1-2,6.1,0.1,9
			C332.9,382.8,335.8,379.8,332.3,376.9z M211,154.5c-2.9-1.1-4.9,2.7-8.1,0.8C206.2,158.6,208.4,155.5,211,154.5z M176.5,313.7
			c0.9-0.2,1.7-0.9,1.5-2.1c-0.2-1.1-0.6-2.4-2-2.5c-1.3-0.1-1.7,0.9-1.6,2C174.4,312.3,174.9,313.3,176.5,313.7z M174.5,326.3
			c0.5,1.2,0.9,2.6,2.5,2.8c1.2,0.2,1.9-0.7,1.7-1.8c-0.2-1.5-1.4-2.2-2.8-2.4C174.8,324.7,174.5,325.4,174.5,326.3z"/>
		<path class="st0" d="M307.1,293.9c1.2,8.8-0.5,15.8-6.4,20.5c-4.1,3.3-9.8,4-15.2,3.3c-7.9-1-12-11.5-9.7-24.6
			c-1.3-1.2-2.8,0.7-4.2-0.2c-0.4-1.8,1-2.8,2-3.7c6.1-5.5,12.4-10.2,21.4-10.2c9.2,0,14,6.1,18.9,12.3c1.1,1.3,0.4,3.2-1.2,4.7
			C310.3,298.1,309.5,295.6,307.1,293.9z M285,300c-0.2,1.8-0.3,3.6-0.7,5.4c-1.1,4.1,1.5,6.8,4.2,8c3,1.3,6.8,1.7,9.7-1.5
			c3.7-4.1,3.9-13.6,0-18.7c-0.7,4.1-1.2,7.8-2.1,11.5c-0.5,1.9-1.5,4-3.7,4.3c-2.2,0.3-2.5-1.9-3.2-3.3c-0.9-1.8-1.6-3.6-2.4-5.5
			c0.9-0.4,1.9-0.7,2.8-1.1c3-1.4,4.5-3.9,4.1-7.2c-0.4-3.3-2.5-5.4-5.8-6c-3-0.5-5.7,0.6-7.1,3.4c-1.6,3.1-1.1,6.1,1.5,8.6
			C283.1,298.7,284.1,299.3,285,300z"/>
		<path class="st0" d="M195.5,295c8-17.5,27.2-15.4,36.6-5.3c1.5,1.6,3.3,3.5,0.1,5.5c-1.6,1-0.8,2.7-0.8,4.2c0.2,4.6-1.2,8.9-3,13
			c-3,6.9-12.3,8.7-19.3,4.5c-7.1-4.2-7.6-11.3-8.1-18.1C200.7,294.7,199.8,293.5,195.5,295z M212,301.4c0.9-1,1.8-1.9,2.6-2.9
			c2.7-3.3,2.3-7.7-0.8-10.2c-3-2.4-7.3-1.9-9.7,1.3c-2.5,3.3-2,7.6,1.3,10.2c1,0.8,2.2,1.5,3.2,2.2c0.3,3.4,1.3,6.5,3.1,9.3
			c3.4,5.4,9.8,5,12.7-0.7c2.5-5,2.2-9.9-0.3-15.6c-1,4.7-1.7,8.6-2.8,12.4c-1,3.4-3.2,3.1-5.1,0.8
			C214.5,306.1,213.4,303.7,212,301.4z"/>
		<path class="st0" d="M196.6,278.5c4-10.1,15.5-13.3,27.7-10.8c6.3,1.3,11.5,3.9,13.6,10.8c0.8,2.8-0.5,2.8-2.3,2.5
			c-0.8-0.1-1.6-0.5-2.4-0.7c-11.1-4.1-22.3-4.4-33.7-1.6C198.4,278.8,197.5,279.1,196.6,278.5z M233.3,276.2
			c-7.9-7-26.3-7.9-31.5,1.2C212.6,270,222.5,274.1,233.3,276.2z"/>
		<path class="st0" d="M311.1,275.1c-12.1-1.5-23,0.8-33.6,5c-4.2,1.7-4.7-1.9-5.7-4.2c-1.1-2.6-0.4-4.2,2.7-4.8
			c6-1.1,11.9-2.8,18-3.8C301.7,265.7,307.5,268.1,311.1,275.1z M303.9,271.6c-8.8-2.9-17.1-1.6-25,2.9c-0.9,0.5-2.7,0.7-2.2,2.2
			c0.7,2,2.2,0.6,3.3,0.2C287.8,274.2,295.3,270.4,303.9,271.6z"/>
		<path class="st0" d="M265.8,349.3c-0.5,4,0.8,9-5.5,9.6c-1.4-0.5-3.5,0.3-3.8-2.1c1.3-1.3,3.6-0.5,4.4-3.1
			c1.6-5.4,0.8-6.9-4.8-6.2c-5.8,0.7-5.8,0.7-8.2,7.1c-3.1-0.8-2.8-3.1-2.5-5.4c3.1-2.2,6.1-4.5,9.2-6.7c0.2-0.2,0.4-0.2,0.6-0.2
			C259.1,344,264.1,344.2,265.8,349.3z"/>
		<path class="st0" d="M372.3,160c-0.1,0.9-0.7,0.9-1.3,0.7c-0.1,0-0.2-0.4-0.1-0.4C371.3,159.9,371.7,159.1,372.3,160
			C372.4,160,372.3,160,372.3,160z"/>
		<path class="st0" d="M372.1,164.6c0.3-0.4,0.8-0.8,1-0.2c0.3,0.6-0.3,0.7-0.8,0.7C372.3,164.9,372.2,164.8,372.1,164.6z"/>
		<path class="st0" d="M370.8,165.2c0.4-0.2,0.8-0.4,1.3-0.6c0.1,0.1,0.2,0.3,0.3,0.4c0.2,0.7-0.2,1.1-0.8,1.2
			C371.3,165.9,371.1,165.6,370.8,165.2z"/>
		<path class="st0" d="M276.3,216c0.3-0.3,0.7-0.8,0.7-0.7c0.8,0.6,0.1,0.9-0.3,1.2C276.6,216.3,276.4,216.1,276.3,216z"/>
		<path class="st0" d="M211.4,216.1c0,0.5-0.3,1-0.8,0.6c-0.5-0.4-0.1-0.8,0.3-1.1C211.1,215.8,211.3,215.9,211.4,216.1z"/>
	</g>
</g>
</svg>
