<?xml version="1.0" encoding="utf-8"?>
<!-- Generator: Adobe Illustrator 21.0.0, SVG Export Plug-In . SVG Version: 6.00 Build 0)  -->
<svg version="1.1" id="Layer_1" xmlns="http://www.w3.org/2000/svg" xmlns:xlink="http://www.w3.org/1999/xlink" x="0px" y="0px"
	 viewBox="0 0 336 397" style="enable-background:new 0 0 336 397;" xml:space="preserve">
<style type="text/css">
	.st0{fill:#FFFFFF;}
</style>
<g>
	<path class="st0" d="M188,366.1c0.1,0.2,0.2,0.4,0.3,0.6c1.3-0.2,2.8-0.2,4-0.7c5.7-2.5,10.4-6.2,13.4-11.7
		c4.6-8.3,9.1-16.8,14.8-24.4c5.1-6.8,10.4-13.5,15.7-20.2c2.9-3.8,5.4-7.8,6.4-12.6c1.8-9.2,3.5-18.4,5.1-27.6
		c0.7-3.9,1-7.8,2.7-11.5c0.7-1.5,1.7-2.5,3.3-2.9c1.7-0.5,3.3-0.9,5-1.5c5.9-1.9,10-5.6,11.5-11.9c0.8-3.4,1.4-6.8,1.4-10.3
		c-0.1-5.9,0.9-11.5,3.5-16.8c1.8-3.7,1.8-7.5-0.1-11.2c-0.9-1.7-1.5-3.6-2.1-5.4c-0.4-1.3-1.1-1.7-2.3-1.5
		c-2.5,0.3-4.7,1.5-6.3,3.3c-2.2,2.6-4.2,5.4-6.3,8.1c-0.6,0.8-1.1,1.6-1.6,2.4c-3.2-10.1-2.7-19.9,0-30.2c0.8,0.8,1.3,1.2,1.8,1.7
		c2.2,2,4.5,1.4,5.3-1.4c0.4-1.5,0.7-3.1,0.8-4.7c0.5-10.3,0.9-20.5,0-30.8c-0.3-4.2-1.1-8.4-2.9-12.2c-0.3-0.6-1.2-1-1.8-1.5
		c-0.4,0.6-1.2,1.1-1.2,1.7c-0.2,3.1-0.2,6.2-0.3,9.3c0,1.6,0.1,3.2,0.1,4.9c-0.1,1.7-0.4,3.4-0.6,5.2c-0.5,5.6-1.4,11.2-3.6,16.4
		c-2.3,5.4-4.7,10.8-7.4,16.1c-2.4,4.7-3.2,9.6-2.1,14.7c1.5,6.4,3.1,12.7,4.7,19c1.3,5.1,2.4,10.2,1.4,15.5
		c-1.1,5.6-2.6,11-3.9,16.6c-0.3,1.3-1.3,1.9-2.5,2.1c-1.7,0.3-3.1-0.2-4.4-1.3c-1.8-1.7-2.8-3.9-3-6.3c-0.4-3.6-0.6-7.2-0.6-10.9
		c0-1.3,0.5-2.7,1-3.9c0.4-1.1,0.4-1.9-0.4-2.8c-1.9-2.3-7.6-2.4-9.7,0.1c-2.3,2.7-5.2,4.5-8.5,5.8c-0.4,0.2-1,0.3-1.2,0.7
		c-0.8,2-2,3.9-2.2,6c-0.4,4.3,0.7,8,4.9,10.4c3.4,2,6.6,4.2,10.7,4.2c0.7,0,1.4,0.2,2,0.5c1.6,0.6,1.8,1,1.1,2.6
		c-0.9,2-2.6,3.3-4.6,4.1c-2.2,0.9-4.5,1.4-6.7,2.4c-1.3,0.6-2.5,1.5-3.4,2.6c-1.3,1.6-2.2,3.5-3.3,5.2c-1.5,2.6-3,5.1-4.7,8
		c-0.5-1.2-0.9-2.3-1.2-3.4c-2-6.8-5.3-13.1-9.5-18.8c-2.6-3.6-6-6-10.6-6.4c-3.1-0.3-4.9,0.9-5.9,3.8c-0.6,1.6-0.4,2,1.3,2.2
		c4.1,0.4,6.6,3.2,8.9,6.1c2.1,2.6,3.2,5.9,3.4,9.4c0.2,4.1,2.1,7.4,4.6,10.6c2.3,2.9,4,6.2,6,9.4c0.3,0.4,0.5,1,0.8,1.4
		c0.6,0.9,1.4,1,2.2,0.3c0.5-0.4,0.9-0.9,1.3-1.4c4.6-6.5,9.2-13,13.8-19.4c2.4-3.3,5-6.5,8.6-8.7c1.2-0.7,2.5-1.3,3.8-2
		c0.1,0.1,0.2,0.2,0.2,0.4c-0.3,0.4-0.5,0.7-0.8,1.1c-1.7,2.8-3.8,5.5-5.1,8.5c-2.9,6.7-6.5,12.9-10.8,18.7c-4,5.4-7.8,11-10.5,17.2
		c-0.1,0.1-0.2,0.2-0.3,0.4c-0.2-0.2-0.3-0.4-0.4-0.5c-3.3-7.8-9.7-13.3-15-19.5c-1.5-1.8-3.2-1.5-4.4,0.6
		c-2.2,3.8-4.4,7.6-6.8,11.2c-3.1,4.7-7.1,8.6-12.7,10.5c-0.9,0.3-1.8,0.8-2.7,1.3c-1.1,0.7-1.5,1.8-1.1,3c0.4,1.3,1.2,2.3,2.6,2.3
		c0.8,0,1.7-0.1,2.5-0.2c1.6-0.2,3.2-0.6,4.8-0.7c4.8-0.3,9.7-0.6,14.5-0.8c0.6,0,1.2,0.1,2,0.1c-0.2,0.5-0.3,0.8-0.5,1
		c-2.3,1.9-4.5,4.1-7.1,5.4c-2.8,1.4-6,2.5-9.2,2.8c-6.1,0.5-12.3,0.7-18.4,0.5c-7-0.2-13.5-2.2-18.6-7.3c-0.7-0.7-1.2-1.4-1.9-2.1
		c0.1-0.1,0.2-0.3,0.3-0.4c4.9,0.2,9.9,0.4,14.8,0.7c2.7,0.2,5.4,0.8,8.1,1.1c1.5,0.2,2.7-0.4,3.2-2c0.5-1.5-0.1-2.7-1.4-3.5
		c-1-0.6-2.1-1.1-3.1-1.5c-5-2-8.8-5.4-11.6-9.9c-2.5-3.9-4.8-7.9-7.2-11.9c-0.9-1.5-2.3-1.9-3.7-0.8c-0.5,0.4-1,1-1.4,1.5
		c-1.9,2.1-3.6,4.4-5.6,6.4c-3,3-5.7,6.2-7.4,10.1c-0.4,0.9-1,1.8-1.5,2.9c-0.3-0.4-0.4-0.5-0.5-0.7c-2.2-5.4-5.5-10.2-8.9-14.9
		c-4.4-6.1-8.6-12.4-11.6-19.3c-1-2.3-2.3-4.5-3.6-6.7c-0.9-1.6-2.1-3-3.1-4.5c0.8,0,1.4,0.2,2,0.4c3.9,1.7,6.7,4.7,9.1,8.1
		c5.2,7.1,10.2,14.3,15.4,21.4c0.5,0.7,1.5,1.5,2.3,1.5c0.5,0.1,1.4-1,1.7-1.8c1.5-3.6,3.6-6.7,6.2-9.7c2.2-2.5,4-5.3,4.2-8.8
		c0.3-3.6,1.1-7.1,3.1-10.2c2.3-3.5,5.1-6.5,9.7-7c1.1-0.1,1.4-0.6,1.2-1.7c-0.9-3.7-3.4-5.1-7.5-4.2c-5.3,1.2-8.6,4.7-11.2,9.1
		c-3,5-5.7,10.1-7.3,15.7c-0.3,1.1-0.8,2.2-1.4,3.5c-2.3-3.9-4.4-7.3-6.3-11c-1.6-3-3.9-4.8-7.2-5.6c-2.3-0.6-4.5-1.5-6.5-2.7
		c-1.2-0.7-1.9-2.3-2.7-3.5c-0.6-0.9-0.1-1.5,0.8-1.8c1.2-0.3,2.5-0.6,3.7-0.7c5.1-0.4,9-3.4,12.5-6.6c3-2.8,2.5-10.8-0.4-13.9
		c-0.2-0.2-0.5-0.4-0.8-0.5c-3.4-1-6-3.1-8.5-5.5c-2.5-2.5-5.6-2.7-8.8-1.5c-1.9,0.7-2.3,2.2-1.6,4.1c0.5,1.4,0.9,2.8,0.9,4.3
		c0.1,2.4,0.1,4.8-0.3,7.1c-0.5,3.2-0.7,6.5-3,9.1c-1.4,1.5-3.2,1.9-5,1.6c-1.7-0.2-2.2-1.7-2.6-3.1c-0.9-3.3-1.8-6.7-2.6-10.1
		c-1.8-7.1-1.6-14.1,0.5-21.2c1.7-5.9,3.2-11.9,4.5-17.9c1-4.7,1-9.5-1.1-14.1c-1.9-4.1-3.8-8.2-5.7-12.3c-1.1-2.3-2.5-4.6-3.1-7.1
		c-1.3-5.2-2.5-10.6-3.1-15.9c-0.6-5.2-0.2-10.4-0.4-15.6c0-1-0.2-2.1-0.5-3.1c-0.1-0.4-0.7-0.8-1.1-0.9c-0.4,0-1,0.4-1.2,0.8
		c-0.8,1.9-1.9,3.8-2.2,5.7c-0.7,6-1.4,12-1.6,18.1c-0.1,6.7,0.3,13.3,0.6,20c0.1,1.6,0.2,3.3,0.7,4.8c0.7,2.5,2.9,3.1,4.9,1.5
		c0.7-0.5,1.3-1.2,2.2-2c2.5,10.2,3.3,20.1,0.1,30c-0.9-1-1.5-2.1-2.2-3.1c-1.9-2.5-3.7-5.3-6-7.4c-1.6-1.5-3.9-2.2-5.9-3
		c-1.1-0.4-1.9,0.2-2.3,1.5c-0.6,2-1.3,3.9-2.2,5.7c-1.7,3.4-1.9,6.8-0.2,10.2c2.9,5.8,3.6,12,3.6,18.4c0,2.9,0.5,5.8,1.1,8.6
		c1.6,7.1,6.1,11.4,13.2,13.2c1.1,0.3,2.1,0.6,3.2,0.9c2.1,0.5,3.5,1.8,4.1,3.8c0.6,1.9,1.2,3.8,1.6,5.8c1.2,7.1,2.2,14.3,3.5,21.3
		c3.3,17,2.2,15.9,14.6,31.4c7.5,9.4,14.8,18.9,20.5,29.5c1.7,3.2,3.2,6.5,5.3,9.5c2.7,4.1,6.8,6.9,11,9.3c1.1,0.6,2.5,0.8,3.8,1.1
		c0.5,0.1,1.1-0.1,2-0.3c-0.5-0.8-0.8-1.4-1.2-1.8c-3.3-2.9-3.1-6.3-1.7-9.9c1.1-2.9,3.4-4.9,5.7-6.8c1.2-1,2.3-2.1,3.2-3.4
		c1.2-1.8,1-3.6-0.5-5.2c-0.5-0.5-1-1.1-1.6-1.5c-3.9-2.4-4.6-6.3-4.7-10.4c0-0.6,0.2-1.2,0.4-1.8c0.2,0,0.3,0,0.5,0
		c0.2,0.5,0.5,1,0.7,1.5c1.1,3.5,3.3,6.3,6,8.8c1.8,1.7,3.7,1,4-1.5c0.2-1.1,0.2-2.2,0.4-3.3c0.3-2,1.5-2.8,3.3-2.3
		c0.3,1.6,0.5,3.1,0.7,4.6c0.3,1.4,0.6,2.8,0.8,4.2c0.4,2.8-0.3,5.2-2.7,7c-1,0.7-1.9,1.4-2.9,2.2c-3.2,2.5-5.7,5.6-7,9.5
		c-1.7,4.8,1,9.8,5.9,11.1c0.4,0.1,0.9,0.1,1.5,0.2c-1.9-5-0.2-8.6,3.6-11.5c2.1-1.6,4.3-3.1,6.6-4.8c2.1,1.5,4.1,3,6.1,4.6
		c0.8,0.6,1.5,1.3,2.2,2c1.8,1.9,2.9,4.2,2.5,6.9c-0.1,0.9-0.4,1.8-0.7,2.9c0.7-0.1,1.4-0.2,1.9-0.4c5.2-1.7,7.5-7.7,4.8-12.8
		c-1.8-3.5-4.4-6.4-7.7-8.6c-3-2-4.9-4.6-4.2-8.5c0.5-2.9,1.1-5.7,1.6-8.6c2.3-0.1,3,0.5,3.3,2.9c0.1,0.9,0.1,1.8,0.3,2.7
		c0.6,2.9,2.3,3.4,4.5,1.4c2.4-2.4,4.5-5,5.5-8.4c0.2-0.6,0.6-1.1,1-1.8c0.3,0.4,0.5,0.5,0.5,0.7c0.8,2.6-0.9,8.7-3,10.5
		c-1,0.9-2.1,1.6-3,2.5c-1.7,1.7-2,3.6-0.6,5.5c0.8,1.1,1.8,2.2,2.9,3c3.4,2.7,6.2,5.7,6.8,10.2c0.3,2.5-0.1,4.8-2.3,6.5
		C188.8,364.7,188.5,365.4,188,366.1z M221.1,216.8c2,0.5,4.5,1.9,6.9,4.1c1.6,1.6,3.5,2.5,5.7,2.6c1,0.1,2.1,0.2,3.1,0.3
		c4.9,0.4,6.7-1,7.7-5.8c0.1-0.7,0.2-1.4,0.2-2c-0.1-5.3-2.3-9.5-6.4-12.8c-1.5-1.2-3.1-2.2-4.6-3.3c-2.1-1.6-3.6-3.6-4.4-6.2
		c-0.8-2.4-1.7-3-4.1-2c-1.6,0.7-3.1,1.7-4.8,2.4c-0.6,0.3-1.6,0.4-2.2,0.1c-0.3-0.2-0.4-1.3-0.2-2c0.8-4.1,5.4-7.7,9.7-7.5
		c2.1,0.1,4.2,0.4,6.3,0.4c2.9,0,4.3-1.5,4.4-4.4c0.2-3-1.1-4.7-4-5.1c-5.9-0.7-10.9,1-14.3,6.1c-2.9,4.4-5.3,9.1-6.8,14.2
		c-0.4,1.5-1.1,2.7-2.5,3.5c-4.2,2.5-8.4,5.2-12.7,7.6c-2.3,1.3-4.2,0.7-5.7-1.5c-0.7-1.1-1.3-2.2-2.1-3.1c-1.9-2.1-2-2.9-0.1-4.9
		c0.4-0.4,0.7-0.8,1.1-1.1c4.6-4.3,9.1-8.7,13.8-13c1.9-1.7,2.8-3.7,2.8-6.2c-0.1-4.5,0.3-8.8,2.1-13c0.7-1.6,0.3-3.2-1-4.3
		c-0.9-0.8-1.8-1.6-2.9-2.1c-1.5-0.7-2.2-1.7-2.2-3.3c0-1.7,0.7-3.1,2.3-3.6c4.8-1.6,6.6-1.3,9.2,2.4c0.8,1.1,1.4,2.3,2.1,3.5
		c0.9,1.5,1.7,3,2.6,4.5c1.5,2.4,2.7,2.9,5.4,2.1c1.2-0.4,2.4-0.9,3.5-1.5c3.4-1.7,6.8-3.5,10.3-5.3c2.9-1.5,3.7-3.1,3.1-6.3
		c-0.3-1.3-0.7-2.5-1.1-3.8c-0.5-1.6-1-3.2-1.4-4.8c-1.3-5-0.9-9.5,2.9-13.5c1.2-1.3,2.2-3.1,2.5-4.8c1.2-6.4,0.4-12.6-3.4-18.1
		c-1.6-2.3-3.4-4.6-5.3-6.7c-1.2-1.3-2.8-2.3-4.3-3.3c-0.4-0.3-1.3,0-1.9,0c0.1,0.6-0.1,1.4,0.2,1.9c2.7,4.6,3,9.5,2.2,14.5
		c-0.4,2.5-1.8,4.3-4.4,5.1c-2.8,0.7-5.5,0.8-7.4-1.6c-1.7-2.1-3.5-4.5-4.3-7.1c-1.9-6-5.1-11-9.3-15.6c-1.4-1.5-2.3-3.4-3.2-5.2
		c-0.8-1.6-0.5-1.9,1.3-2.2c1.7-0.3,3.5-0.6,4.9-1.4c3.2-1.8,3.2-3.3,0.2-5.4c-0.2-0.1-0.3-0.2-0.5-0.3c-5-3.1-9.9-6.4-15.1-9.2
		c-3.3-1.8-7-2.9-10.5-4.3c-0.6-0.2-1.4-0.4-2-0.2c-0.7,0.2-1.4,0.6-1.7,1.1c-0.2,0.2,0.3,1.1,0.7,1.5c2.2,2.3,3.5,5.1,4.6,8
		c3,8.4,4.1,17.2,5.1,26c1.3,12.8,8.2,21.3,20.4,25.2c4.5,1.5,9.2,2.6,13.8,3.8c1.3,0.3,2.2,0.9,2.7,2.1c1.5,3.4,3,6.9,4.3,10.3
		c0.4,1.1,0.6,2.5,0.6,3.7c0.1,3-2.2,4.2-4.4,5.5c-2.5,1.4-3,1.3-4.4-1.2c-0.4-0.7-0.7-1.4-1-2.2c-0.7-1.6-1.6-3.2-2.2-4.9
		c-1-2.8-3.1-3.8-5.8-4c-3.7-0.2-7.5-0.3-11.2-0.4c-2.1-0.1-3.8,0.8-4.9,2.6c-1.2,1.9-2.4,3.8-3.7,5.7c-2,2.8-4.2,5.5-6.2,8.4
		c-0.8,1.1-1.6,2.4-1.9,3.7c-1,4.7-0.9,9.4-0.5,14.1c0.4,5.1,0.5,10.2,0.6,15.3c0,0.8-0.5,1.7-1,2.4c-1.8,2.2-3.7,4.3-5.6,6.5
		c-1.8,2.1-1.8,4.3,0,6.4c1.1,1.3,2.5,2.4,3.7,3.6c0.8,0.8,1.7,1.6,2.3,2.6c1.3,2.1,0.7,3.8-1.6,4.9c-0.8,0.4-1.7,0.6-2.5,1.1
		c-1.6,0.9-2.9,3-2.7,4.3c0.2,1.5,1.6,2.7,3.8,3c3.9,0.6,7.5,0.2,10.4-3c1.2-1.4,2.8-2.5,4.7-3c0,1.1-0.1,2,0,2.9
		c0.3,3.2,1,6.4,4.4,7.8c2.4,0.9,4.9,1.6,7.5,1.8c4.9,0.4,7.9-1.7,9.2-6.4C220.8,221.3,220.8,219.1,221.1,216.8z M135.1,217.1
		c1.5,1.1,3.2,2.1,4.4,3.4c2.6,2.6,5.7,3.5,9.2,3.1c1.4-0.2,2.8-0.9,4-1.6c1.2-0.8,1.5-2.2,0.6-3.3c-0.8-1.1-2-2.1-3.1-3
		c-0.6-0.5-1.5-0.6-2.2-0.9c-1.7-0.8-2.3-2.4-1.4-4.1c0.4-0.7,0.9-1.4,1.5-2c1.5-1.6,3.2-3.1,4.7-4.7c2.1-2.3,2.1-4.2,0.1-6.6
		c-1.7-2-3.5-3.9-5.2-5.9c-0.6-0.7-1.2-1.7-1.2-2.6c-0.1-4.1-0.2-8.2,0.1-12.3c0.3-5.1,1.1-10.2,0.4-15.3c-0.3-2.2-1-4.1-2.4-5.9
		c-2.3-2.9-4.4-5.9-6.5-8.9c-1.2-1.8-2.4-3.6-3.6-5.4c-0.9-1.4-2.2-2.2-4-2.2c-3.5,0.1-6.9,0.2-10.4,0.3c-1.2,0-2.3,0.2-3.4,0.4
		c-1.6,0.3-2.7,1.2-3.4,2.8c-1.2,2.7-2.5,5.4-3.8,8c-1.2,2.5-1.8,2.6-4.1,1.3c-0.4-0.2-0.7-0.4-1.1-0.6c-2.6-1.4-3.7-3.2-3.2-6.2
		c0.7-4.6,2.7-8.8,4.8-13c0.6-1.3,1.7-1.8,3.1-2.1c6.7-1.3,13.4-2.9,19.4-6.3c2.6-1.5,5-3.3,7.1-5.4c4.1-3.9,5.8-9.1,6.7-14.5
		c1.2-7.1,2.2-14.3,3.6-21.5c1.1-5.6,2.6-11.1,6.8-15.3c0.3-0.3,0.6-1.1,0.4-1.3c-0.4-0.5-1.1-0.9-1.7-1.2c-0.3-0.1-0.8,0-1.2,0.1
		c-2.1,0.6-4.2,1.1-6.1,2c-7.5,3.4-14.5,7.6-21.2,12.4c-2.3,1.6-2.3,3,0,4.5c1.6,1,3.5,1.5,5.4,1.8c1.9,0.4,2.4,0.8,1.5,2.5
		c-0.9,1.7-1.9,3.3-3.1,4.7c-4.2,4.8-7.6,9.9-9.6,16c-0.8,2.4-2.3,4.6-3.9,6.6c-2,2.5-4.8,2.7-7.8,1.8c-2.9-0.9-4.1-3.1-4.4-5.8
		c-0.6-4.8-0.1-9.4,2.4-13.7c0.3-0.5,0.4-1.4,0.2-1.7c-0.3-0.3-1.3-0.5-1.7-0.3c-1.4,0.8-2.9,1.6-4,2.7c-1.7,1.8-3.3,3.7-4.6,5.8
		c-1.5,2.4-3.2,4.8-4,7.5c-1.9,6.6-2.4,13.1,3.1,18.6c1.1,1.1,1.8,2.8,2,4.4c0.3,2.3,0.2,4.6-0.2,6.9c-0.6,3.3-1.8,6.5-2.6,9.7
		c-0.7,3,0.1,4.4,2.8,5.7c4,2,8,4.1,12,6c1,0.5,2,0.9,3.1,1.1c1.6,0.3,3-0.2,3.9-1.7c0.9-1.5,1.7-3,2.6-4.5c1-1.7,1.9-3.4,3.1-5
		c2.9-3.8,7.1-2.7,9.7-0.8c2.3,1.7,1.9,4.5-0.6,5.9c-0.8,0.5-1.7,0.9-2.4,1.5c-2.3,1.9-2.5,3.4-1.5,6.1c0.7,1.9,1.2,3.9,1.5,5.9
		c0.3,2.2,0.3,4.5,0.3,6.8c0.1,2,0.7,3.7,2.2,5.1c4.6,4.2,9.1,8.5,13.6,12.7c1,0.9,1.9,2,2.8,3c0.7,0.8,0.7,1.7,0,2.6
		c-1.2,1.7-2.5,3.4-3.8,5c-1.2,1.4-3,1.8-4.5,1c-4.3-2.6-8.7-5.2-13-7.8c-1.5-0.9-2.1-2.1-2.7-3.7c-1.8-5.5-4.3-10.8-7.9-15.4
		c-3.4-4.4-8.2-5.4-13.5-4.7c-1.7,0.2-3.2,1.1-3.6,3.1c-0.8,4.5,1.7,7.1,6.2,6.5c1.4-0.2,2.8-0.5,4.2-0.6c4.3-0.3,8.8,3.1,9.8,7.3
		c0.2,0.7-0.1,1.5-0.1,2.3c-0.8-0.1-1.7,0-2.4-0.3c-1.2-0.5-2.2-1.3-3.3-1.8c-0.8-0.4-1.7-0.8-2.7-0.9c-1.2-0.2-2.1,0.3-2.4,1.5
		c-1.1,4-3.8,6.6-7.3,8.7c-3.2,2-5.5,4.8-7.2,8.2c-1.9,3.9-1.9,7.8,0.2,11.7c0.7,1.3,1.6,2.1,3,2.2c4.8,0.5,9.3,0.3,13.1-3.4
		c1.7-1.7,3.9-2.9,6.6-3.6c-0.7,2.9-0.2,5.4,0.8,7.9c1.1,2.9,3.2,4.5,6.2,5c3.7,0.7,7.1-0.1,10.4-1.7c1.7-0.8,2.9-2.2,3.3-4
		C134.5,221.8,134.7,219.6,135.1,217.1z M167.3,113c-1.4-1.3-3-2.5-4.1-3.9c-2.3-2.8-4.2-6.1-4.5-9.7c-0.4-4.7-0.7-9.6,0.6-14.3
		c0.4-1.3,0.6-2.7,0.7-4c0.3-4.2,1.5-8.2,3.4-11.9c0.7-1.4,1.3-2.9,2-4.5c-2-0.6-3.8-0.4-5.2,0.9c-1.3,1.2-2.4,2.6-3.4,4.1
		c-3.4,5.7-5.9,11.8-7.5,18.3c-2.4,9.4-2.4,18.9-2.3,28.5c0.2,14.4,5.1,27.2,12.5,39.2c2.9,4.7,4.3,9.7,5,14.9c0.5,3.9,0.2,8,0.3,12
		c0.1,3.5-1.1,6.5-3.7,8.9c-0.9,0.8-1.9,1.6-2.8,2.3c-0.5,0.4-1,0.9-1.6,1.5c0.9,0.8,1.7,1.3,2.5,2c1,0.9,2.1,1.7,2.7,2.8
		c2.4,4.3,3.8,8.9,3.6,13.9c-0.1,2.6-1.1,4.8-3.9,5.7c-0.6,0.2-1,0.9-1.5,1.4c0.6,0.4,1.1,0.9,1.7,1.3c0.3,0.2,0.6,0.2,0.9,0.3
		c1.5,0.3,2.2,1.4,2.6,2.8c0.9,3.6-0.6,7.2-4.1,9.7c-3.3,2.3-3.3,2.3-0.1,4.9c3.5,2.7,4.3,9.4,1.5,12.8c-1.4,1.8-3.1,3.2-5.2,4
		c-0.9,0.4-1.6,1.1-0.7,2c3.7,3.8,6.5,8.1,9.1,12.6c0.9,1.6,1.7,1.4,2.7-0.2c2.5-3.7,4.8-7.6,7.7-10.9c2.2-2.6,2.4-2.8-0.9-4.4
		c-6.3-2.9-7.1-12.4-1.6-16.5c0.9-0.6,1.6-1.4,2.5-2.2c-1.6-1.2-3-2.2-4.4-3.3c-2.7-2.2-3.4-5.1-2.9-8.4c0.2-1.4,1-2.4,2.3-3
		c0.8-0.3,1.6-0.6,2.3-1c0.9-0.5,1-1,0.1-1.6c-0.3-0.2-0.6-0.4-1-0.5c-2.9-1-4-3.1-4-6c0-1,0-2.1,0.2-3.1c0.8-3.8,1.2-7.8,3.8-10.9
		c1-1.2,2.2-2.3,3.4-3.3c1.4-1.2,1.5-1.4-0.1-2.5c-0.3-0.2-0.5-0.3-0.8-0.5c-3.5-2.5-5.7-5.7-5.8-10.3c-0.3-7.1-0.2-14.1,2.2-20.9
		c0.7-2,1.6-3.9,2.6-5.7c4.4-7.4,8.6-15.1,10.7-23.5c2.9-11.4,3.1-23.1,1.8-34.8c-1.2-10.6-4.3-20.5-10-29.5
		c-0.6-0.9-1.1-1.8-1.8-2.6c-1.5-1.7-3.4-2.2-5.7-1.8c0,0.3,0,0.4,0.1,0.6c0.2,0.5,0.5,1,0.8,1.5c2.4,4.2,3.8,8.6,4.4,13.4
		c0.2,2.1,0.6,4.2,1.1,6.2c1.2,4.8,1,9.7,0,14.4C174.5,105.6,171.4,109.9,167.3,113z M138.1,277.5c0,5.7,4.5,9.8,10,9.2
		c2-0.2,3.4,0.3,4.5,1.9c0.9,1.3,1.7,2.7,2.5,4c1.2,2.1,2.3,4.2,3.6,6.3c1.6,2.5,3.5,4.6,6.1,6c1.5,0.8,2.9,0.8,4.3,0
		c2.4-1.3,4.2-3.2,5.6-5.5c2-3.2,3.9-6.5,5.8-9.8c1.1-1.9,2.5-3.3,5-3c6.7,0.6,11.1-4.1,10.1-10.7c-0.3-1.6-0.9-3.3-1.7-4.7
		c-1.7-3-3.6-5.9-5.5-8.8c-0.5-0.8-1.2-1.5-1.9-2.1c-0.7-0.6-1.3-0.6-1.8,0.5c-1.4,3.1-3,6-4.4,9.1c-1.7,3.8-4.9,6.3-7.8,9
		c-0.8,0.8-1.9,1-2.7,0.1c-2-2-3.8-1.8-5.7,0c-0.4,0.4-1.7,0.5-2.1,0.1c-2.4-2.1-5-4-6.7-6.6c-2.3-3.3-3.8-7.1-5.7-10.7
		c-0.3-0.6-0.8-1.2-1.2-1.9c-0.7,0.5-1.4,1-2.1,1.5c-0.2,0.2-0.4,0.5-0.5,0.8c-1.9,3-3.8,6.1-5.7,9.1
		C138.7,273.3,138.1,275.4,138.1,277.5z M71,65.5c-2.5,1.1-4,2.8-4.5,5.2c-0.7,3.4-1.3,6.7-1.7,10.1c-0.2,1.5-0.3,3.2,0,4.7
		c1.1,6.3,4.4,11.7,8.1,16.8c0.9,1.3,1.2,2.2,0.2,3.6c-1.4,1.9-1.9,4.3-0.6,6.4c1.5,2.6,1.8,5.2,1.6,8c-0.1,1.3,0.2,2.7,0.6,4
		c0.4,1.3,1.4,1.4,2.1,0.2c0.5-0.9,0.7-2,1.1-2.9c1.6-3.7,3-7.6,5-11c4.3-7.4,10.4-13.3,16.6-19.1c0.5-0.4,1-0.8,1.4-1.3
		c1.6-1.7,1.7-4.2,0.3-5.9c-1.3-1.5-3.2-1.7-5.3-0.4c-1.2,0.8-2.4,1.7-3.6,2.5c-0.5,0.3-1,0.6-1.5,0.9c-0.2-0.3-0.2-0.4-0.3-0.5
		c-0.1-0.4-0.2-0.7-0.3-1.1c-1.1-4.5-3.5-7.4-8.4-7.9c-1.3-0.1-2.8-0.8-3.8-1.6c-2.7-2.2-4.6-5-5.8-8.3C71.8,67.1,71.4,66.3,71,65.5
		z M243.4,87.4c-1.9-1.3-3.6-2.6-5.4-3.6c-2.2-1.3-4.1-0.9-5.3,0.7c-1.3,1.8-1,4.2,0.7,5.9c3.9,3.8,7.9,7.4,11.5,11.5
		c5.1,5.8,9.6,12,11.4,19.8c0.2,1,0.6,1.9,1.1,2.8c0.2,0.4,0.8,0.9,1.2,0.9c0.4,0,0.9-0.6,1-1c0.3-1.9,0.7-3.8,0.5-5.6
		c-0.2-2.1,0.2-3.8,1.3-5.5c1.6-2.5,1.3-5.1-0.4-7.4c-0.9-1.3-0.9-2.3,0.2-3.4c2.7-2.9,4.4-6.5,6-10.1c3.7-7.8,2.2-15.5-0.3-23.2
		c-0.6-1.7-1.8-2.9-3.7-3.5c-0.3,0.6-0.6,1.1-0.9,1.7c-0.7,1.4-1.2,2.9-2,4.3c-2.1,3.5-4.6,6.3-9.1,6.7c-3.1,0.3-5.3,2.2-6.3,5.2
		C244.2,84.6,243.9,85.8,243.4,87.4z M213.8,73.2c0.5-0.2,1.4-0.4,1.6-0.8c0.2-0.5-0.2-1.4-0.6-1.9c-0.4-0.6-1.1-1-1.7-1.4
		c-1.6-1-3.3-1.9-4.9-2.8c-2.8-1.5-5.5-3.4-8.5-4.5c-6-2.3-12-4.5-18.1-6.3c-2.6-0.8-4.4-1.5-4-4.6c0.1-0.5-0.1-1-0.2-1.6
		c-0.6-5.1-1.3-10.1-3.1-14.9c-1-2.5-2.2-4.8-4.4-6.4c-0.5-0.4-1.2-0.5-1.8-0.7c-0.1,0.6-0.4,1.3-0.4,1.9c0.4,5.7-1.3,10.9-4.3,15.7
		c-1.7,2.7-3,5.5-4.5,8.3c-0.2,0.3-0.5,0.7-0.8,0.8c-1,0.4-2.1,0.8-3.2,1c-6.5,1.3-12.8,3.6-18.8,6.3c-5,2.3-9.8,5-14.7,7.6
		c-0.9,0.5-1.7,1.3-2.5,2.1c-0.3,0.3-0.5,1.1-0.3,1.4c0.3,0.4,1,0.7,1.4,0.7c1-0.1,1.9-0.4,2.9-0.8c6.2-2.3,12.2-5,18.5-6.9
		c6.9-2.1,14-3.7,21.1-5.2c2.3-0.5,4.9-0.7,7.2-0.2c7.1,1.4,14.3,2.8,21.2,4.9c7.1,2.2,14,5.1,21,7.7
		C212.4,72.8,213,72.9,213.8,73.2z M229.5,82.2c0.2-3.8-1-8.4-2.6-13c-0.9-2.6-2.7-2.9-4.5-0.7c-0.3,0.4-0.6,0.9-0.8,1.3
		c-1.7,3.8-3.5,7.5-5.1,11.3c-1.1,2.5-2.5,4.8-4.8,6.5c-2.2,1.7-2.2,2.7-0.1,4.5c4.7,4.3,7.7,9.5,9.7,15.5c0.6,1.7,1.2,3.4,2,4.9
		c1.4,2.6,4.4,2.6,6,0.1c1.1-1.8,1.7-3.9,1.2-5.9c-0.7-3.3-1.7-6.6-2.6-9.9c-0.2-0.7-0.4-1.5-0.2-2.1
		C229.1,91.1,229.4,87.2,229.5,82.2z M103,107.3c0.6,1.9,1,3.6,1.7,5.1c0.5,1.2,1.5,2.2,3,2.2c1.6,0,2.6-0.9,3.2-2.3
		c0.8-1.7,1.4-3.4,2-5.1c2.1-5.8,5-11,9.6-15.2c2-1.8,2-2.8-0.2-4.4c-2.1-1.6-3.5-3.7-4.6-6.1c-1.9-4.1-3.8-8.2-5.7-12.3
		c-0.5-1.1-1.1-2.2-2.6-2.2c-1.5,0-2.1,1.2-2.4,2.4c-0.8,3-1.7,6.1-2.1,9.2c-0.6,5-0.7,10,0.9,14.9c0.7,2,0.4,3.4-0.3,5.2
		C104.5,101.6,103.8,104.5,103,107.3z M121.5,241.9c-0.7,4.2,1.9,7,4.4,9.9c0.8,0.9,1.4,0.6,2.2-0.1c1.8-1.6,3.5-3.3,5.5-4.6
		c2.3-1.5,4.7-2.7,7.1-4c5-2.6,8.9-6.6,12.4-10.8c2.8-3.4,1.6-6.1-2.7-6.6c-4-0.4-7.8,0.1-11.4,2.1c-3.8,2.1-7.9,3.9-12,5.5
		c-4.3,1.6-5.5,3-5.5,7.6C121.5,241.2,121.5,241.5,121.5,241.9z M186.4,225.3c-1.4,0.2-2.7,0.2-4,0.5c-3.3,0.8-4.1,2.6-2.1,5.4
		c3.5,4.8,7.7,8.9,13,11.7c4.6,2.5,9.4,4.5,12.7,8.8c0.8,1,1.5,0.6,2.4-0.2c3.2-2.9,4.3-6.5,4.1-10.8c-0.2-5-1.1-6.1-5.8-7.7
		c-3.8-1.4-7.6-3-11.2-5C192.6,226.4,189.8,225.3,186.4,225.3z M76.6,195.6c-0.1,0-0.1,0-0.2,0c-0.1-1.1-0.2-2.1-0.2-3.2
		c0-2.7-1.1-4.8-3.3-6.3c-1.1-0.8-2.2-1.6-3.4-2.2c-4.1-2.1-8.1-4.3-10.9-8.1c-1-1.3-2-1.2-2.6,0.3c-0.7,1.7-1.3,3.6-1.2,5.4
		c0.5,7.8,2.4,9.8,8.4,12.2c1.4,0.5,2.8,1,4.1,1.6c2.5,1,4.6,2.5,5.8,5.1c0.2,0.5,0.6,1,1,1.4c0.3,0.3,0.9,0.8,1.1,0.6
		c0.4-0.2,0.8-0.7,0.9-1.2C76.4,199.3,76.5,197.5,76.6,195.6z M257.6,196.5C257.6,196.5,257.6,196.5,257.6,196.5
		c0,1.1-0.2,2.2,0,3.3c0.1,0.9,0.6,1.8,0.9,2.6c0.7-0.6,1.7-1.1,2.1-1.9c1.3-2.8,3.6-4.5,6.4-5.6c1.8-0.7,3.7-1.3,5.5-2
		c2.3-1,4.3-2.3,5.3-4.7c1.2-2.9,1.7-6,1.3-9.1c-0.2-1.1-0.6-2.2-1.1-3.1c-0.9-1.4-1.6-1.4-2.6-0.1c-1.8,2.4-4.2,4.1-6.8,5.6
		c-1.7,1-3.5,1.9-5.3,2.9c-3.7,2-5.8,4.9-5.6,9.2C257.6,194.6,257.6,195.5,257.6,196.5z"/>
	<path d="M188,366.1c0.4-0.6,0.8-1.4,1.3-1.8c2.2-1.7,2.6-4,2.3-6.5c-0.6-4.5-3.4-7.5-6.8-10.2c-1.1-0.9-2.1-1.9-2.9-3
		c-1.4-1.9-1.1-3.9,0.6-5.5c0.9-0.9,2-1.7,3-2.5c2.1-1.8,3.8-7.9,3-10.5c0-0.1-0.2-0.2-0.5-0.7c-0.4,0.7-0.8,1.2-1,1.8
		c-1,3.3-3.1,6-5.5,8.4c-2.1,2.1-3.8,1.5-4.5-1.4c-0.2-0.9-0.2-1.8-0.3-2.7c-0.3-2.4-1-3-3.3-2.9c-0.5,2.9-1.1,5.8-1.6,8.6
		c-0.7,3.8,1.1,6.5,4.2,8.5c3.3,2.2,5.8,5.1,7.7,8.6c2.7,5.1,0.5,11.1-4.8,12.8c-0.6,0.2-1.2,0.2-1.9,0.4c0.3-1.1,0.6-2,0.7-2.9
		c0.3-2.7-0.7-5-2.5-6.9c-0.7-0.7-1.4-1.4-2.2-2c-2-1.5-4-3-6.1-4.6c-2.2,1.6-4.4,3.1-6.6,4.8c-3.8,2.9-5.6,6.5-3.6,11.5
		c-0.6-0.1-1.1-0.1-1.5-0.2c-4.9-1.3-7.6-6.3-5.9-11.1c1.4-3.9,3.8-7,7-9.5c1-0.7,1.9-1.4,2.9-2.2c2.3-1.8,3.1-4.2,2.7-7
		c-0.2-1.4-0.6-2.8-0.8-4.2c-0.3-1.5-0.5-3-0.7-4.6c-1.8-0.5-3,0.2-3.3,2.3c-0.2,1.1-0.2,2.2-0.4,3.3c-0.4,2.5-2.2,3.2-4,1.5
		c-2.7-2.4-4.9-5.2-6-8.8c-0.2-0.5-0.4-1-0.7-1.5c-0.2,0-0.3,0-0.5,0c-0.1,0.6-0.4,1.2-0.4,1.8c0.1,4.1,0.8,8,4.7,10.4
		c0.6,0.4,1.1,0.9,1.6,1.5c1.5,1.6,1.8,3.4,0.5,5.2c-0.9,1.3-2,2.4-3.2,3.4c-2.3,2-4.6,3.9-5.7,6.8c-1.4,3.6-1.6,7.1,1.7,9.9
		c0.4,0.4,0.7,1,1.2,1.8c-0.9,0.1-1.5,0.4-2,0.3c-1.3-0.3-2.7-0.5-3.8-1.1c-4.2-2.4-8.2-5.2-11-9.3c-2-3-3.5-6.3-5.3-9.5
		c-5.7-10.6-13-20.2-20.5-29.5c-12.4-15.5-11.3-14.5-14.6-31.4c-1.4-7.1-2.3-14.2-3.5-21.3c-0.3-2-1-3.9-1.6-5.8
		c-0.6-2-2-3.3-4.1-3.8c-1.1-0.2-2.1-0.6-3.2-0.9c-7.1-1.7-11.5-6.1-13.2-13.2c-0.6-2.8-1.1-5.7-1.1-8.6c-0.1-6.4-0.7-12.6-3.6-18.4
		c-1.7-3.3-1.5-6.8,0.2-10.2c0.9-1.8,1.6-3.8,2.2-5.7c0.4-1.3,1.2-1.9,2.3-1.5c2.1,0.8,4.4,1.6,5.9,3c2.3,2.2,4.1,4.9,6,7.4
		c0.8,1,1.3,2.1,2.2,3.1c3.2-9.9,2.5-19.8-0.1-30c-0.9,0.8-1.5,1.5-2.2,2c-2,1.6-4.2,1-4.9-1.5c-0.4-1.6-0.6-3.2-0.7-4.8
		c-0.3-6.7-0.7-13.4-0.6-20c0.1-6,0.8-12.1,1.6-18.1c0.2-2,1.4-3.8,2.2-5.7c0.2-0.4,0.8-0.8,1.2-0.8c0.4,0,1,0.5,1.1,0.9
		c0.3,1,0.5,2.1,0.5,3.1c0.1,5.2-0.2,10.5,0.4,15.6c0.6,5.4,1.8,10.7,3.1,15.9c0.6,2.5,2,4.7,3.1,7.1c1.9,4.1,3.8,8.2,5.7,12.3
		c2.1,4.6,2.1,9.4,1.1,14.1c-1.3,6-2.7,12-4.5,17.9c-2,7.1-2.3,14.1-0.5,21.2c0.9,3.4,1.7,6.7,2.6,10.1c0.4,1.4,0.9,2.9,2.6,3.1
		c1.9,0.3,3.7-0.1,5-1.6c2.3-2.6,2.6-5.9,3-9.1c0.3-2.3,0.4-4.7,0.3-7.1c-0.1-1.4-0.4-2.9-0.9-4.3c-0.7-1.9-0.3-3.4,1.6-4.1
		c3.2-1.2,6.3-1,8.8,1.5c2.5,2.5,5.1,4.5,8.5,5.5c0.3,0.1,0.6,0.3,0.8,0.5c2.8,3.1,3.4,11.1,0.4,13.9c-3.5,3.2-7.3,6.2-12.5,6.6
		c-1.2,0.1-2.5,0.4-3.7,0.7c-0.9,0.2-1.4,0.9-0.8,1.8c0.8,1.3,1.5,2.8,2.7,3.5c2,1.2,4.2,2.2,6.5,2.7c3.3,0.8,5.6,2.6,7.2,5.6
		c1.9,3.6,4.1,7.1,6.3,11c0.5-1.4,1-2.4,1.4-3.5c1.7-5.6,4.4-10.7,7.3-15.7c2.6-4.4,5.9-7.9,11.2-9.1c4.1-0.9,6.6,0.4,7.5,4.2
		c0.3,1.1-0.1,1.6-1.2,1.7c-4.6,0.5-7.4,3.5-9.7,7c-2,3.1-2.8,6.6-3.1,10.2c-0.3,3.5-2,6.3-4.2,8.8c-2.6,2.9-4.7,6-6.2,9.7
		c-0.3,0.7-1.2,1.8-1.7,1.8c-0.8-0.1-1.8-0.8-2.3-1.5c-5.2-7.1-10.2-14.3-15.4-21.4c-2.4-3.3-5.2-6.3-9.1-8.1
		c-0.6-0.3-1.2-0.5-2-0.4c1,1.5,2.2,2.9,3.1,4.5c1.3,2.2,2.6,4.4,3.6,6.7c3,7,7.2,13.2,11.6,19.3c3.4,4.7,6.7,9.4,8.9,14.9
		c0.1,0.2,0.2,0.3,0.5,0.7c0.6-1.1,1.1-1.9,1.5-2.9c1.8-3.9,4.5-7.1,7.4-10.1c2-2,3.8-4.3,5.6-6.4c0.4-0.5,0.9-1.1,1.4-1.5
		c1.4-1.1,2.8-0.7,3.7,0.8c2.4,4,4.7,8,7.2,11.9c2.8,4.5,6.6,7.9,11.6,9.9c1.1,0.4,2.1,0.9,3.1,1.5c1.3,0.8,1.9,2,1.4,3.5
		c-0.5,1.5-1.7,2.2-3.2,2c-2.7-0.3-5.4-0.9-8.1-1.1c-4.9-0.4-9.9-0.5-14.8-0.7c-0.1,0.1-0.2,0.3-0.3,0.4c0.6,0.7,1.2,1.4,1.9,2.1
		c5.2,5.1,11.6,7.1,18.6,7.3c6.1,0.2,12.3,0.1,18.4-0.5c3.1-0.3,6.3-1.3,9.2-2.8c2.6-1.3,4.7-3.6,7.1-5.4c0.2-0.2,0.3-0.5,0.5-1
		c-0.8,0-1.4-0.1-2-0.1c-4.8,0.2-9.7,0.5-14.5,0.8c-1.6,0.1-3.2,0.5-4.8,0.7c-0.8,0.1-1.7,0.2-2.5,0.2c-1.5,0-2.3-1-2.6-2.3
		c-0.3-1.3,0-2.3,1.1-3c0.8-0.5,1.7-1,2.7-1.3c5.5-1.9,9.5-5.8,12.7-10.5c2.4-3.6,4.6-7.4,6.8-11.2c1.2-2,2.9-2.4,4.4-0.6
		c5.3,6.3,11.7,11.7,15,19.5c0.1,0.2,0.2,0.3,0.4,0.5c0.2-0.2,0.3-0.3,0.3-0.4c2.7-6.2,6.5-11.7,10.5-17.2c4.3-5.8,7.9-12,10.8-18.7
		c1.3-3,3.4-5.7,5.1-8.5c0.2-0.4,0.5-0.8,0.8-1.1c-0.1-0.1-0.2-0.2-0.2-0.4c-1.3,0.6-2.6,1.2-3.8,2c-3.6,2.2-6.2,5.4-8.6,8.7
		c-4.6,6.4-9.2,12.9-13.8,19.4c-0.4,0.5-0.8,1-1.3,1.4c-0.8,0.6-1.6,0.5-2.2-0.3c-0.3-0.4-0.5-0.9-0.8-1.4c-2-3.2-3.7-6.5-6-9.4
		c-2.5-3.2-4.4-6.5-4.6-10.6c-0.2-3.5-1.3-6.7-3.4-9.4c-2.3-2.8-4.8-5.6-8.9-6.1c-1.7-0.2-1.9-0.6-1.3-2.2c1-2.9,2.8-4.1,5.9-3.8
		c4.6,0.4,8,2.8,10.6,6.4c4.1,5.8,7.4,12,9.5,18.8c0.3,1.1,0.8,2.1,1.2,3.4c1.7-2.8,3.2-5.4,4.7-8c1-1.8,2-3.6,3.3-5.2
		c0.9-1.1,2.1-2,3.4-2.6c2.1-1,4.5-1.5,6.7-2.4c2-0.8,3.6-2.1,4.6-4.1c0.7-1.5,0.6-2-1.1-2.6c-0.6-0.2-1.3-0.5-2-0.5
		c-4.1,0-7.3-2.2-10.7-4.2c-4.2-2.4-5.3-6.1-4.9-10.4c0.2-2,1.4-4,2.2-6c0.1-0.3,0.8-0.5,1.2-0.7c3.3-1.3,6.2-3.1,8.5-5.8
		c2.1-2.5,7.8-2.4,9.7-0.1c0.7,0.9,0.8,1.7,0.4,2.8c-0.5,1.2-1,2.6-1,3.9c0.1,3.6,0.3,7.3,0.6,10.9c0.2,2.4,1.2,4.6,3,6.3
		c1.2,1.2,2.7,1.6,4.4,1.3c1.2-0.2,2.2-0.8,2.5-2.1c1.4-5.5,2.9-11,3.9-16.6c1-5.2-0.1-10.4-1.4-15.5c-1.6-6.3-3.3-12.6-4.7-19
		c-1.2-5.1-0.3-10,2.1-14.7c2.6-5.3,5.1-10.6,7.4-16.1c2.2-5.2,3.1-10.8,3.6-16.4c0.2-1.7,0.5-3.4,0.6-5.2c0.1-1.6-0.1-3.2-0.1-4.9
		c0-3.1,0.1-6.2,0.3-9.3c0-0.6,0.8-1.1,1.2-1.7c0.6,0.5,1.5,0.9,1.8,1.5c1.8,3.9,2.6,8,2.9,12.2c0.8,10.3,0.5,20.5,0,30.8
		c-0.1,1.6-0.3,3.2-0.8,4.7c-0.8,2.9-3.1,3.4-5.3,1.4c-0.5-0.5-1-0.9-1.8-1.7c-2.7,10.2-3.2,20.1,0,30.2c0.5-0.8,1-1.6,1.6-2.4
		c2.1-2.7,4-5.5,6.3-8.1c1.6-1.9,3.8-3,6.3-3.3c1.2-0.1,1.9,0.2,2.3,1.5c0.5,1.9,1.2,3.7,2.1,5.4c1.9,3.8,1.9,7.5,0.1,11.2
		c-2.6,5.3-3.6,11-3.5,16.8c0,3.5-0.5,6.9-1.4,10.3c-1.6,6.3-5.6,9.9-11.5,11.9c-1.6,0.5-3.3,1-5,1.5c-1.6,0.4-2.6,1.4-3.3,2.9
		c-1.7,3.6-2.1,7.6-2.7,11.5c-1.6,9.2-3.3,18.4-5.1,27.6c-0.9,4.7-3.4,8.8-6.4,12.6c-5.2,6.7-10.5,13.4-15.7,20.2
		c-5.7,7.6-10.2,16-14.8,24.4c-3,5.5-7.7,9.3-13.4,11.7c-1.2,0.5-2.7,0.5-4,0.7C188.2,366.5,188.1,366.3,188,366.1z"/>
	<path d="M221.1,216.8c-0.3,2.3-0.3,4.5-0.9,6.6c-1.3,4.7-4.3,6.8-9.2,6.4c-2.5-0.2-5.1-0.9-7.5-1.8c-3.4-1.3-4.1-4.6-4.4-7.8
		c-0.1-0.9,0-1.8,0-2.9c-1.9,0.6-3.5,1.7-4.7,3c-2.9,3.2-6.5,3.6-10.4,3c-2.3-0.3-3.6-1.5-3.8-3c-0.2-1.4,1-3.5,2.7-4.3
		c0.8-0.4,1.6-0.7,2.5-1.1c2.2-1,2.9-2.8,1.6-4.9c-0.6-1-1.4-1.8-2.3-2.6c-1.2-1.2-2.6-2.3-3.7-3.6c-1.8-2.1-1.8-4.3,0-6.4
		c1.8-2.2,3.8-4.3,5.6-6.5c0.5-0.6,1-1.6,1-2.4c-0.1-5.1-0.2-10.2-0.6-15.3c-0.3-4.8-0.5-9.5,0.5-14.1c0.3-1.3,1.1-2.6,1.9-3.7
		c2-2.8,4.1-5.5,6.2-8.4c1.3-1.8,2.5-3.8,3.7-5.7c1.2-1.8,2.8-2.6,4.9-2.6c3.7,0.1,7.5,0.2,11.2,0.4c2.7,0.2,4.9,1.2,5.8,4
		c0.6,1.7,1.4,3.3,2.2,4.9c0.3,0.7,0.6,1.5,1,2.2c1.4,2.5,1.9,2.7,4.4,1.2c2.2-1.3,4.4-2.5,4.4-5.5c0-1.2-0.2-2.6-0.6-3.7
		c-1.3-3.5-2.8-6.9-4.3-10.3c-0.5-1.2-1.4-1.8-2.7-2.1c-4.6-1.1-9.3-2.3-13.8-3.8c-12.2-4-19-12.4-20.4-25.2c-0.9-8.8-2-17.6-5.1-26
		c-1.1-3-2.3-5.7-4.6-8c-0.4-0.4-0.9-1.3-0.7-1.5c0.4-0.5,1.1-1,1.7-1.1c0.6-0.1,1.4,0,2,0.2c3.5,1.4,7.2,2.5,10.5,4.3
		c5.2,2.8,10.1,6.1,15.1,9.2c0.2,0.1,0.4,0.2,0.5,0.3c3,2.1,3,3.6-0.2,5.4c-1.5,0.8-3.3,1.1-4.9,1.4c-1.8,0.3-2.1,0.5-1.3,2.2
		c0.9,1.8,1.9,3.7,3.2,5.2c4.2,4.6,7.5,9.5,9.3,15.6c0.8,2.6,2.6,4.9,4.3,7.1c1.9,2.3,4.7,2.3,7.4,1.6c2.6-0.7,4-2.5,4.4-5.1
		c0.7-5,0.4-10-2.2-14.5c-0.3-0.5-0.2-1.2-0.2-1.9c0.6,0,1.5-0.3,1.9,0c1.5,1,3.1,2,4.3,3.3c1.9,2.1,3.7,4.3,5.3,6.7
		c3.8,5.5,4.7,11.7,3.4,18.1c-0.3,1.7-1.3,3.5-2.5,4.8c-3.8,4-4.2,8.5-2.9,13.5c0.4,1.6,1,3.2,1.4,4.8c0.4,1.3,0.8,2.5,1.1,3.8
		c0.7,3.2-0.2,4.8-3.1,6.3c-3.4,1.8-6.8,3.5-10.3,5.3c-1.1,0.6-2.3,1.1-3.5,1.5c-2.7,0.8-3.9,0.3-5.4-2.1c-0.9-1.5-1.7-3-2.6-4.5
		c-0.7-1.2-1.3-2.4-2.1-3.5c-2.6-3.7-4.5-3.9-9.2-2.4c-1.6,0.5-2.3,1.9-2.3,3.6c0,1.6,0.8,2.6,2.2,3.3c1.1,0.5,2,1.3,2.9,2.1
		c1.3,1.2,1.7,2.7,1,4.3c-1.7,4.2-2.1,8.6-2.1,13c0.1,2.5-0.8,4.5-2.8,6.2c-4.7,4.2-9.2,8.6-13.8,13c-0.4,0.4-0.8,0.7-1.1,1.1
		c-1.9,2.1-1.8,2.8,0.1,4.9c0.8,0.9,1.4,2.1,2.1,3.1c1.4,2.2,3.4,2.8,5.7,1.5c4.3-2.5,8.5-5.1,12.7-7.6c1.3-0.8,2-2,2.5-3.5
		c1.5-5.1,3.8-9.8,6.8-14.2c3.4-5.1,8.4-6.8,14.3-6.1c2.8,0.3,4.1,2.1,4,5.1c-0.2,2.9-1.5,4.4-4.4,4.4c-2.1,0-4.2-0.3-6.3-0.4
		c-4.2-0.2-8.8,3.4-9.7,7.5c-0.1,0.7-0.1,1.8,0.2,2c0.6,0.3,1.5,0.1,2.2-0.1c1.6-0.7,3.1-1.8,4.8-2.4c2.4-1,3.3-0.4,4.1,2
		c0.8,2.5,2.3,4.6,4.4,6.2c1.5,1.2,3.1,2.1,4.6,3.3c4.1,3.3,6.3,7.6,6.4,12.8c0,0.7-0.1,1.4-0.2,2c-1,4.8-2.8,6.2-7.7,5.8
		c-1-0.1-2.1-0.3-3.1-0.3c-2.3-0.1-4.1-1.1-5.7-2.6C225.7,218.7,223.2,217.3,221.1,216.8z"/>
	<path d="M135.1,217.1c-0.4,2.6-0.6,4.7-1.1,6.8c-0.4,1.8-1.6,3.2-3.3,4c-3.3,1.6-6.7,2.4-10.4,1.7c-3-0.6-5.1-2.2-6.2-5
		c-1-2.5-1.5-5-0.8-7.9c-2.7,0.7-4.9,1.9-6.6,3.6c-3.7,3.8-8.3,3.9-13.1,3.4c-1.4-0.1-2.4-0.9-3-2.2c-2.1-3.9-2.1-7.7-0.2-11.7
		c1.7-3.4,4-6.2,7.2-8.2c3.4-2.1,6.1-4.7,7.3-8.7c0.3-1.2,1.3-1.7,2.4-1.5c0.9,0.2,1.8,0.5,2.7,0.9c1.1,0.5,2.2,1.3,3.3,1.8
		c0.7,0.3,1.6,0.2,2.4,0.3c0-0.8,0.3-1.5,0.1-2.3c-1-4.2-5.5-7.6-9.8-7.3c-1.4,0.1-2.8,0.4-4.2,0.6c-4.5,0.6-7-2-6.2-6.5
		c0.3-2,1.9-2.8,3.6-3.1c5.3-0.7,10.1,0.3,13.5,4.7c3.6,4.6,6.1,9.8,7.9,15.4c0.5,1.6,1.2,2.9,2.7,3.7c4.3,2.6,8.7,5.2,13,7.8
		c1.5,0.9,3.4,0.5,4.5-1c1.3-1.6,2.5-3.4,3.8-5c0.6-0.9,0.7-1.8,0-2.6c-0.9-1-1.8-2.1-2.8-3c-4.5-4.3-9-8.5-13.6-12.7
		c-1.5-1.4-2.1-3.1-2.2-5.1c-0.1-2.3,0-4.5-0.3-6.8c-0.3-2-0.8-4-1.5-5.9c-1-2.8-0.7-4.2,1.5-6.1c0.7-0.6,1.6-1.1,2.4-1.5
		c2.5-1.4,2.8-4.2,0.6-5.9c-2.6-2-6.8-3-9.7,0.8c-1.2,1.5-2.1,3.3-3.1,5c-0.9,1.5-1.7,3-2.6,4.5c-0.9,1.5-2.2,2.1-3.9,1.7
		c-1.1-0.2-2.1-0.6-3.1-1.1c-4-2-8-4-12-6c-2.7-1.4-3.5-2.8-2.8-5.7c0.8-3.3,2-6.4,2.6-9.7c0.4-2.2,0.5-4.6,0.2-6.9
		c-0.2-1.5-0.9-3.3-2-4.4c-5.5-5.5-5-12-3.1-18.6c0.8-2.7,2.4-5.1,4-7.5c1.3-2.1,2.9-4,4.6-5.8c1.1-1.1,2.6-1.9,4-2.7
		c0.4-0.2,1.4-0.1,1.7,0.3c0.3,0.3,0.1,1.2-0.2,1.7c-2.5,4.3-2.9,8.9-2.4,13.7c0.3,2.7,1.5,4.9,4.4,5.8c3,0.9,5.8,0.7,7.8-1.8
		c1.6-2,3.1-4.2,3.9-6.6c2-6.1,5.4-11.2,9.6-16c1.2-1.4,2.2-3.1,3.1-4.7c0.9-1.8,0.5-2.2-1.5-2.5c-1.9-0.4-3.8-0.9-5.4-1.8
		c-2.4-1.5-2.3-2.8,0-4.5c6.7-4.8,13.7-9.1,21.2-12.4c2-0.9,4.1-1.4,6.1-2c0.4-0.1,0.9-0.3,1.2-0.1c0.6,0.3,1.3,0.7,1.7,1.2
		c0.2,0.2-0.1,1-0.4,1.3c-4.2,4.3-5.8,9.8-6.8,15.3c-1.4,7.1-2.3,14.3-3.6,21.5c-0.9,5.4-2.6,10.6-6.7,14.5c-2.2,2-4.6,3.9-7.1,5.4
		c-6,3.5-12.7,5-19.4,6.3c-1.4,0.3-2.5,0.8-3.1,2.1c-2,4.2-4,8.3-4.8,13c-0.5,3,0.6,4.8,3.2,6.2c0.4,0.2,0.7,0.4,1.1,0.6
		c2.3,1.3,2.9,1.2,4.1-1.3c1.3-2.6,2.6-5.3,3.8-8c0.7-1.5,1.8-2.5,3.4-2.8c1.1-0.2,2.3-0.4,3.4-0.4c3.5-0.1,6.9-0.2,10.4-0.3
		c1.7,0,3,0.8,4,2.2c1.2,1.8,2.3,3.6,3.6,5.4c2.1,3,4.2,6,6.5,8.9c1.4,1.8,2.1,3.7,2.4,5.9c0.7,5.1,0,10.2-0.4,15.3
		c-0.3,4.1-0.2,8.2-0.1,12.3c0,0.9,0.6,1.9,1.2,2.6c1.7,2,3.5,3.9,5.2,5.9c2,2.4,2,4.3-0.1,6.6c-1.5,1.6-3.1,3.1-4.7,4.7
		c-0.6,0.6-1.1,1.3-1.5,2c-0.9,1.7-0.3,3.3,1.4,4.1c0.7,0.3,1.6,0.4,2.2,0.9c1.1,0.9,2.3,1.8,3.1,3c0.9,1.2,0.6,2.6-0.6,3.3
		c-1.2,0.8-2.6,1.5-4,1.6c-3.5,0.4-6.6-0.5-9.2-3.1C138.2,219.1,136.6,218.2,135.1,217.1z"/>
	<path d="M167.3,113c4.2-3.1,7.2-7.3,8.2-12.4c1-4.7,1.2-9.6,0-14.4c-0.5-2-0.9-4.1-1.1-6.2c-0.5-4.8-2-9.2-4.4-13.4
		c-0.3-0.5-0.5-1-0.8-1.5c-0.1-0.1,0-0.3-0.1-0.6c2.2-0.4,4.2,0.1,5.7,1.8c0.7,0.8,1.3,1.7,1.8,2.6c5.7,9,8.8,18.9,10,29.5
		c1.3,11.7,1.1,23.4-1.8,34.8c-2.1,8.4-6.3,16-10.7,23.5c-1.1,1.8-1.9,3.7-2.6,5.7c-2.4,6.8-2.5,13.8-2.2,20.9
		c0.2,4.5,2.3,7.7,5.8,10.3c0.3,0.2,0.5,0.3,0.8,0.5c1.6,1,1.6,1.3,0.1,2.5c-1.2,1-2.4,2.1-3.4,3.3c-2.6,3.1-3,7.1-3.8,10.9
		c-0.2,1-0.3,2.1-0.2,3.1c0,2.8,1.1,5,4,6c0.3,0.1,0.7,0.3,1,0.5c0.9,0.6,0.9,1.2-0.1,1.6c-0.7,0.4-1.5,0.7-2.3,1
		c-1.4,0.5-2.1,1.6-2.3,3c-0.5,3.3,0.2,6.2,2.9,8.4c1.3,1.1,2.8,2.1,4.4,3.3c-0.9,0.8-1.7,1.6-2.5,2.2c-5.5,4.1-4.6,13.6,1.6,16.5
		c3.3,1.5,3.1,1.8,0.9,4.4c-2.9,3.4-5.2,7.2-7.7,10.9c-1.1,1.6-1.8,1.8-2.7,0.2c-2.6-4.5-5.4-8.9-9.1-12.6c-1-1-0.2-1.7,0.7-2
		c2.1-0.9,3.8-2.2,5.2-4c2.7-3.5,1.9-10.1-1.5-12.8c-3.2-2.5-3.2-2.5,0.1-4.9c3.5-2.4,5-6,4.1-9.7c-0.4-1.4-1.1-2.5-2.6-2.8
		c-0.3-0.1-0.6-0.1-0.9-0.3c-0.6-0.4-1.1-0.8-1.7-1.3c0.5-0.5,0.9-1.2,1.5-1.4c2.8-0.9,3.8-3.1,3.9-5.7c0.2-5-1.2-9.6-3.6-13.9
		c-0.6-1.1-1.8-1.9-2.7-2.8c-0.7-0.7-1.5-1.2-2.5-2c0.7-0.6,1.1-1,1.6-1.5c0.9-0.8,1.9-1.5,2.8-2.3c2.6-2.4,3.8-5.3,3.7-8.9
		c-0.1-4,0.2-8-0.3-12c-0.7-5.2-2.1-10.3-5-14.9c-7.4-12-12.3-24.8-12.5-39.2c-0.1-9.6-0.1-19.2,2.3-28.5c1.6-6.5,4.1-12.6,7.5-18.3
		c0.9-1.5,2.1-2.9,3.4-4.1c1.4-1.3,3.1-1.5,5.2-0.9c-0.7,1.6-1.3,3-2,4.5c-1.9,3.8-3.1,7.7-3.4,11.9c-0.1,1.4-0.3,2.7-0.7,4
		c-1.3,4.7-1,9.5-0.6,14.3c0.3,3.7,2.3,6.9,4.5,9.7C164.3,110.5,165.8,111.6,167.3,113z"/>
	<path d="M138.1,277.5c-0.1-2.1,0.6-4.2,1.9-6.2c1.9-3,3.8-6.1,5.7-9.1c0.2-0.3,0.3-0.6,0.5-0.8c0.7-0.5,1.4-1,2.1-1.5
		c0.4,0.6,0.8,1.2,1.2,1.9c1.9,3.6,3.4,7.4,5.7,10.7c1.8,2.5,4.4,4.5,6.7,6.6c0.4,0.3,1.7,0.3,2.1-0.1c2-1.8,3.8-2,5.7,0
		c0.8,0.9,1.9,0.6,2.7-0.1c2.9-2.7,6.1-5.2,7.8-9c1.4-3.1,3-6,4.4-9.1c0.5-1.1,1.1-1.1,1.8-0.5c0.7,0.6,1.4,1.3,1.9,2.1
		c1.9,2.9,3.8,5.8,5.5,8.8c0.8,1.4,1.5,3.1,1.7,4.7c1.1,6.6-3.4,11.4-10.1,10.7c-2.6-0.2-3.9,1.1-5,3c-1.9,3.3-3.8,6.5-5.8,9.8
		c-1.4,2.3-3.2,4.1-5.6,5.5c-1.5,0.8-2.8,0.8-4.3,0c-2.6-1.4-4.6-3.6-6.1-6c-1.3-2-2.4-4.2-3.6-6.3c-0.8-1.4-1.6-2.7-2.5-4
		c-1.1-1.5-2.5-2.1-4.5-1.9C142.6,287.4,138.1,283.2,138.1,277.5z"/>
	<path d="M71,65.5c0.4,0.9,0.9,1.6,1.1,2.4c1.2,3.3,3.1,6.1,5.8,8.3c1,0.8,2.5,1.5,3.8,1.6c4.9,0.6,7.3,3.5,8.4,7.9
		c0.1,0.4,0.2,0.7,0.3,1.1c0,0.1,0.1,0.2,0.3,0.5c0.5-0.3,1-0.6,1.5-0.9c1.2-0.8,2.4-1.7,3.6-2.5c2.1-1.3,4-1.1,5.3,0.4
		c1.4,1.7,1.3,4.2-0.3,5.9c-0.4,0.5-0.9,0.8-1.4,1.3c-6.2,5.8-12.3,11.7-16.6,19.1c-2,3.5-3.4,7.3-5,11c-0.4,1-0.6,2-1.1,2.9
		c-0.7,1.2-1.7,1.2-2.1-0.2c-0.4-1.3-0.7-2.7-0.6-4c0.2-2.9-0.1-5.5-1.6-8c-1.3-2.1-0.8-4.5,0.6-6.4c1-1.4,0.8-2.3-0.2-3.6
		c-3.7-5.1-6.9-10.5-8.1-16.8c-0.3-1.5-0.2-3.2,0-4.7c0.5-3.4,1.1-6.7,1.7-10.1C67,68.2,68.5,66.6,71,65.5z"/>
	<path d="M243.4,87.4c0.5-1.5,0.9-2.8,1.3-4c1-3.1,3.3-4.9,6.3-5.2c4.5-0.4,7-3.2,9.1-6.7c0.8-1.4,1.3-2.8,2-4.3
		c0.3-0.6,0.6-1.1,0.9-1.7c1.9,0.7,3.2,1.9,3.7,3.5c2.5,7.7,4,15.4,0.3,23.2c-1.7,3.6-3.3,7.2-6,10.1c-1,1.1-1.1,2.1-0.2,3.4
		c1.7,2.3,1.9,4.9,0.4,7.4c-1.1,1.7-1.4,3.5-1.3,5.5c0.1,1.8-0.3,3.7-0.5,5.6c-0.1,0.4-0.6,1-1,1c-0.4,0-1-0.5-1.2-0.9
		c-0.5-0.9-0.9-1.8-1.1-2.8c-1.8-7.7-6.3-14-11.4-19.8c-3.5-4.1-7.6-7.7-11.5-11.5c-1.7-1.6-2-4.1-0.7-5.9c1.2-1.7,3.1-2,5.3-0.7
		C239.8,84.8,241.5,86.1,243.4,87.4z"/>
	<path d="M213.8,73.2c-0.8-0.2-1.4-0.4-2-0.6c-7-2.6-13.9-5.5-21-7.7c-6.9-2.1-14.1-3.5-21.2-4.9c-2.3-0.5-4.9-0.3-7.2,0.2
		c-7.1,1.5-14.2,3.1-21.1,5.2c-6.3,1.9-12.3,4.6-18.5,6.9c-0.9,0.3-1.9,0.7-2.9,0.8c-0.5,0.1-1.2-0.3-1.4-0.7
		c-0.2-0.3,0-1.1,0.3-1.4c0.7-0.8,1.5-1.6,2.5-2.1c4.9-2.6,9.7-5.3,14.7-7.6c6-2.8,12.2-5,18.8-6.3c1.1-0.2,2.1-0.6,3.2-1
		c0.3-0.1,0.7-0.5,0.8-0.8c1.5-2.8,2.8-5.7,4.5-8.3c3-4.8,4.7-10,4.3-15.7c0-0.6,0.3-1.2,0.4-1.9c0.6,0.2,1.3,0.3,1.8,0.7
		c2.2,1.6,3.4,4,4.4,6.4c1.9,4.8,2.5,9.9,3.1,14.9c0.1,0.5,0.2,1.1,0.2,1.6c-0.4,3.1,1.4,3.8,4,4.6c6.1,1.8,12.2,4,18.1,6.3
		c3,1.2,5.7,3,8.5,4.5c1.7,0.9,3.3,1.8,4.9,2.8c0.6,0.4,1.3,0.8,1.7,1.4c0.4,0.5,0.8,1.4,0.6,1.9C215.2,72.8,214.3,72.9,213.8,73.2z
		"/>
	<path d="M229.5,82.2c-0.1,5-0.4,8.9-1.8,12.7c-0.2,0.6,0,1.4,0.2,2.1c0.9,3.3,1.9,6.6,2.6,9.9c0.4,2-0.1,4.1-1.2,5.9
		c-1.6,2.5-4.6,2.5-6-0.1c-0.9-1.6-1.5-3.3-2-4.9c-2-5.9-5-11.2-9.7-15.5c-2.1-1.9-2.1-2.8,0.1-4.5c2.3-1.7,3.6-4,4.8-6.5
		c1.7-3.8,3.4-7.6,5.1-11.3c0.2-0.5,0.5-0.9,0.8-1.3c1.8-2.2,3.6-1.9,4.5,0.7C228.4,73.7,229.7,78.4,229.5,82.2z"/>
	<path d="M103,107.3c0.8-2.8,1.5-5.7,2.5-8.5c0.6-1.8,0.9-3.3,0.3-5.2c-1.6-4.8-1.6-9.9-0.9-14.9c0.4-3.1,1.3-6.2,2.1-9.2
		c0.3-1.1,0.9-2.3,2.4-2.4c1.5,0,2.1,1,2.6,2.2c1.9,4.1,3.9,8.2,5.7,12.3c1.1,2.4,2.5,4.5,4.6,6.1c2.2,1.6,2.2,2.6,0.2,4.4
		c-4.6,4.2-7.5,9.4-9.6,15.2c-0.6,1.7-1.3,3.5-2,5.1c-0.6,1.3-1.6,2.2-3.2,2.3c-1.5,0-2.5-0.9-3-2.2
		C104,110.9,103.6,109.2,103,107.3z"/>
	<path d="M121.5,241.9c0-0.4,0-0.7,0-1.1c0-4.6,1.2-6,5.5-7.6c4.1-1.6,8.2-3.3,12-5.5c3.7-2,7.4-2.5,11.4-2.1
		c4.4,0.5,5.6,3.2,2.7,6.6c-3.5,4.3-7.4,8.2-12.4,10.8c-2.4,1.3-4.9,2.5-7.1,4c-2,1.3-3.8,3-5.5,4.6c-0.8,0.8-1.4,1-2.2,0.1
		C123.4,248.9,120.8,246.1,121.5,241.9z"/>
	<path d="M186.4,225.3c3.3,0,6.2,1.1,9.1,2.8c3.5,2,7.3,3.7,11.2,5c4.6,1.6,5.5,2.7,5.8,7.7c0.2,4.3-1,7.8-4.1,10.8
		c-0.8,0.8-1.6,1.2-2.4,0.2c-3.3-4.3-8.2-6.3-12.7-8.8c-5.3-2.9-9.5-6.9-13-11.7c-2-2.7-1.2-4.6,2.1-5.4
		C183.7,225.5,185.1,225.5,186.4,225.3z"/>
	<path d="M76.6,195.6c-0.1,1.9-0.2,3.8-0.5,5.6c-0.1,0.4-0.5,1-0.9,1.2c-0.2,0.1-0.8-0.3-1.1-0.6c-0.4-0.4-0.8-0.9-1-1.4
		c-1.1-2.6-3.3-4-5.8-5.1c-1.4-0.6-2.8-1-4.1-1.6c-6.1-2.4-7.9-4.4-8.4-12.2c-0.1-1.8,0.5-3.7,1.2-5.4c0.6-1.5,1.6-1.6,2.6-0.3
		c2.9,3.8,6.8,6,10.9,8.1c1.2,0.6,2.3,1.4,3.4,2.2c2.2,1.5,3.3,3.6,3.3,6.3c0,1.1,0.1,2.1,0.2,3.2C76.5,195.6,76.6,195.6,76.6,195.6
		z"/>
	<path d="M257.6,196.5c0-0.9,0-1.9,0-2.8c-0.2-4.3,2-7.2,5.6-9.2c1.8-1,3.5-1.9,5.3-2.9c2.6-1.4,5-3.2,6.8-5.6
		c1-1.4,1.7-1.3,2.6,0.1c0.6,0.9,1,2,1.1,3.1c0.4,3.1-0.1,6.2-1.3,9.1c-1,2.4-3,3.7-5.3,4.7c-1.8,0.8-3.7,1.3-5.5,2
		c-2.8,1.1-5,2.8-6.4,5.6c-0.4,0.8-1.4,1.3-2.1,1.9c-0.3-0.9-0.8-1.7-0.9-2.6C257.4,198.7,257.6,197.6,257.6,196.5
		C257.6,196.5,257.6,196.5,257.6,196.5z"/>
</g>
</svg>
